<svg version="1.1" xmlns="http://www.w3.org/2000/svg" viewBox="0 0 87.72265625 114.83984374999986" width="175.4453125" height="229.67968749999972">
  <!-- svg-source:excalidraw -->
  <g transform="translate(31.137978830644897 100.07774697580626) rotate(0 2.326171875 2.326171875)"><path d="M2.326171875 0 C2.7996627870962465 -0.029699183976390042, 3.4396009846948146 0.22384810842223218, 3.8214063342513054 0.5442208364165961 C4.203211683807796 0.8645935644109601, 4.530455725994349 1.431396871952283, 4.617003972338945 1.9222363679661836 C4.703552218683541 2.413075863980084, 4.5899015555274305 3.057620803724827, 4.34069581231888 3.4892578125 C4.091490069110329 3.920894821275173, 3.5901231089887267 4.341591652597684, 3.12176951308764 4.512058420617221 C2.6534159171865532 4.682525188636758, 1.9989278328134472 4.682525188636758, 1.5305742369123605 4.512058420617221 C1.0622206410112738 4.341591652597684, 0.560853680889671 3.920894821275173, 0.3116479376811201 3.4892578125 C0.062442194472569185 3.057620803724827, -0.051208468683540606 2.4130758639800836, 0.035339777661055116 1.9222363679661831 C0.12188802400565084 1.4313968719522825, 0.44913206619220364 0.8645935644109601, 0.8309374157486944 0.5442208364165964 C1.2127427653051852 0.22384810842223252, 2.0769661317914485 0.08294956648609941, 2.3261718749999996 0 C2.5753776182085506 -0.08294956648609941, 2.326171875 0.007753906249999908, 2.326171875 0.046523437499999876 M2.326171875 0 C2.7996627870962465 -0.029699183976390042, 3.4396009846948146 0.22384810842223218, 3.8214063342513054 0.5442208364165961 C4.203211683807796 0.8645935644109601, 4.530455725994349 1.431396871952283, 4.617003972338945 1.9222363679661836 C4.703552218683541 2.413075863980084, 4.5899015555274305 3.057620803724827, 4.34069581231888 3.4892578125 C4.091490069110329 3.920894821275173, 3.5901231089887267 4.341591652597684, 3.12176951308764 4.512058420617221 C2.6534159171865532 4.682525188636758, 1.9989278328134472 4.682525188636758, 1.5305742369123605 4.512058420617221 C1.0622206410112738 4.341591652597684, 0.560853680889671 3.920894821275173, 0.3116479376811201 3.4892578125 C0.062442194472569185 3.057620803724827, -0.051208468683540606 2.4130758639800836, 0.035339777661055116 1.9222363679661831 C0.12188802400565084 1.4313968719522825, 0.44913206619220364 0.8645935644109601, 0.8309374157486944 0.5442208364165964 C1.2127427653051852 0.22384810842223252, 2.0769661317914485 0.08294956648609941, 2.3261718749999996 0 C2.5753776182085506 -0.08294956648609941, 2.326171875 0.007753906249999908, 2.326171875 0.046523437499999876" stroke="#000000" stroke-width="1" fill="none"></path></g><g transform="translate(52.83984375 100.18749999999986) rotate(0 2.326171875 2.326171875)"><path d="M2.326171875 0 C2.7996627870962465 -0.029699183976390042, 3.4396009846948146 0.22384810842223218, 3.8214063342513054 0.5442208364165961 C4.203211683807796 0.8645935644109601, 4.530455725994349 1.431396871952283, 4.617003972338945 1.9222363679661836 C4.703552218683541 2.413075863980084, 4.5899015555274305 3.057620803724827, 4.34069581231888 3.4892578125 C4.091490069110329 3.920894821275173, 3.5901231089887267 4.341591652597684, 3.12176951308764 4.512058420617221 C2.6534159171865532 4.682525188636758, 1.9989278328134472 4.682525188636758, 1.5305742369123605 4.512058420617221 C1.0622206410112738 4.341591652597684, 0.560853680889671 3.920894821275173, 0.3116479376811201 3.4892578125 C0.062442194472569185 3.057620803724827, -0.051208468683540606 2.4130758639800836, 0.035339777661055116 1.9222363679661831 C0.12188802400565084 1.4313968719522825, 0.44913206619220364 0.8645935644109601, 0.8309374157486944 0.5442208364165964 C1.2127427653051852 0.22384810842223252, 2.0769661317914485 0.08294956648609941, 2.3261718749999996 0 C2.5753776182085506 -0.08294956648609941, 2.326171875 0.007753906249999908, 2.326171875 0.046523437499999876 M2.326171875 0 C2.7996627870962465 -0.029699183976390042, 3.4396009846948146 0.22384810842223218, 3.8214063342513054 0.5442208364165961 C4.203211683807796 0.8645935644109601, 4.530455725994349 1.431396871952283, 4.617003972338945 1.9222363679661836 C4.703552218683541 2.413075863980084, 4.5899015555274305 3.057620803724827, 4.34069581231888 3.4892578125 C4.091490069110329 3.920894821275173, 3.5901231089887267 4.341591652597684, 3.12176951308764 4.512058420617221 C2.6534159171865532 4.682525188636758, 1.9989278328134472 4.682525188636758, 1.5305742369123605 4.512058420617221 C1.0622206410112738 4.341591652597684, 0.560853680889671 3.920894821275173, 0.3116479376811201 3.4892578125 C0.062442194472569185 3.057620803724827, -0.051208468683540606 2.4130758639800836, 0.035339777661055116 1.9222363679661831 C0.12188802400565084 1.4313968719522825, 0.44913206619220364 0.8645935644109601, 0.8309374157486944 0.5442208364165964 C1.2127427653051852 0.22384810842223252, 2.0769661317914485 0.08294956648609941, 2.3261718749999996 0 C2.5753776182085506 -0.08294956648609941, 2.326171875 0.007753906249999908, 2.326171875 0.046523437499999876" stroke="#000000" stroke-width="1" fill="none"></path></g><g transform="translate(10 10.000000000000028) rotate(0 33.861328125 33.86132812499997)"><path d="M33.86132812499998 0 C40.57765818477376 -0.43993314104905973, 49.559639755682504 3.037069416301269, 55.07079147165403 7.465339662056355 C60.58194318762556 11.893609907811442, 65.40582141888544 19.665664849660363, 66.92823842082916 26.569621474530514 C68.45065542277288 33.47357809940066, 67.34289969210938 42.55363957773457, 64.20529348331638 48.88907941127726 C61.06768727452338 55.224519244819945, 54.51674698719696 61.608861071588365, 48.102601168071146 64.58226047578663 C41.68845534894533 67.55565987998489, 32.58287605581014 68.42919576680853, 25.7204185685615 66.72947583646683 C18.857961081312858 65.02975590612513, 11.21272069416877 60.00731241396694, 6.927856244579299 54.383940893736394 C2.642991794989829 48.760569373505845, -0.17084780238763683 40.0567227566719, 0.01123187102467682 32.98924671508352 C0.19331154443699047 25.921770673495136, 3.45159597552615 17.374360435577273, 8.020334285053181 11.9790846442061 C12.589072594580212 6.583808852834927, 23.116829421529065 2.614106074224156, 27.423661728186865 0.6175919668564731 C31.730494034844664 -1.3789221405112102, 32.78838372553112 -0.00993909927392167, 33.86132812499997 0 C34.934272524468824 0.00993909927392167, 33.86132812499998 0.11287109375000348, 33.86132812499998 0.6772265625000031 M33.86132812499998 0 C40.57765818477376 -0.43993314104905973, 49.559639755682504 3.037069416301269, 55.07079147165403 7.465339662056355 C60.58194318762556 11.893609907811442, 65.40582141888544 19.665664849660363, 66.92823842082916 26.569621474530514 C68.45065542277288 33.47357809940066, 67.34289969210938 42.55363957773457, 64.20529348331638 48.88907941127726 C61.06768727452338 55.224519244819945, 54.51674698719696 61.608861071588365, 48.102601168071146 64.58226047578663 C41.68845534894533 67.55565987998489, 32.58287605581014 68.42919576680853, 25.7204185685615 66.72947583646683 C18.857961081312858 65.02975590612513, 11.21272069416877 60.00731241396694, 6.927856244579299 54.383940893736394 C2.642991794989829 48.760569373505845, -0.17084780238763683 40.0567227566719, 0.01123187102467682 32.98924671508352 C0.19331154443699047 25.921770673495136, 3.45159597552615 17.374360435577273, 8.020334285053181 11.9790846442061 C12.589072594580212 6.583808852834927, 23.116829421529065 2.614106074224156, 27.423661728186865 0.6175919668564731 C31.730494034844664 -1.3789221405112102, 32.78838372553112 -0.00993909927392167, 33.86132812499997 0 C34.934272524468824 0.00993909927392167, 33.86132812499998 0.11287109375000348, 33.86132812499998 0.6772265625000031" stroke="#000000" stroke-width="1" fill="none"></path></g></svg>