<svg version="1.1" xmlns="http://www.w3.org/2000/svg" viewBox="0 0 300.0011023773004 254.93668811274523" width="600.0022047546008" height="509.87337622549046">
  <!-- svg-source:excalidraw -->
  <g transform="translate(157.70846989812435 235.92731311274525) rotate(0 2.326171875 2.326171875)"><path d="M2.326171875 0 C2.7996627870962465 -0.029699183976390042, 3.4396009846948146 0.22384810842223218, 3.8214063342513054 0.5442208364165961 C4.203211683807796 0.8645935644109601, 4.530455725994349 1.431396871952283, 4.617003972338945 1.9222363679661836 C4.703552218683541 2.413075863980084, 4.5899015555274305 3.057620803724827, 4.34069581231888 3.4892578125 C4.091490069110329 3.920894821275173, 3.5901231089887267 4.341591652597684, 3.12176951308764 4.512058420617221 C2.6534159171865532 4.682525188636758, 1.9989278328134472 4.682525188636758, 1.5305742369123605 4.512058420617221 C1.0622206410112738 4.341591652597684, 0.560853680889671 3.920894821275173, 0.3116479376811201 3.4892578125 C0.062442194472569185 3.057620803724827, -0.051208468683540606 2.4130758639800836, 0.035339777661055116 1.9222363679661831 C0.12188802400565084 1.4313968719522825, 0.44913206619220364 0.8645935644109601, 0.8309374157486944 0.5442208364165964 C1.2127427653051852 0.22384810842223252, 2.0769661317914485 0.08294956648609941, 2.3261718749999996 0 C2.5753776182085506 -0.08294956648609941, 2.326171875 0.007753906249999908, 2.326171875 0.046523437499999876 M2.326171875 0 C2.7996627870962465 -0.029699183976390042, 3.4396009846948146 0.22384810842223218, 3.8214063342513054 0.5442208364165961 C4.203211683807796 0.8645935644109601, 4.530455725994349 1.431396871952283, 4.617003972338945 1.9222363679661836 C4.703552218683541 2.413075863980084, 4.5899015555274305 3.057620803724827, 4.34069581231888 3.4892578125 C4.091490069110329 3.920894821275173, 3.5901231089887267 4.341591652597684, 3.12176951308764 4.512058420617221 C2.6534159171865532 4.682525188636758, 1.9989278328134472 4.682525188636758, 1.5305742369123605 4.512058420617221 C1.0622206410112738 4.341591652597684, 0.560853680889671 3.920894821275173, 0.3116479376811201 3.4892578125 C0.062442194472569185 3.057620803724827, -0.051208468683540606 2.4130758639800836, 0.035339777661055116 1.9222363679661831 C0.12188802400565084 1.4313968719522825, 0.44913206619220364 0.8645935644109601, 0.8309374157486944 0.5442208364165964 C1.2127427653051852 0.22384810842223252, 2.0769661317914485 0.08294956648609941, 2.3261718749999996 0 C2.5753776182085506 -0.08294956648609941, 2.326171875 0.007753906249999908, 2.326171875 0.046523437499999876" stroke="#000000" stroke-width="1" fill="none"></path></g><g transform="translate(135.79206364812399 231.46793811274523) rotate(0 6.734375 6.734375)"><path d="M6.734375000000002 0 C8.105153056177885 -0.08598050911048964, 9.957803690367527 0.6480506111165879, 11.06314780898279 1.5755444533706324 C12.168491927598055 2.503038295624677, 13.115878541753585 4.1439600457527055, 13.36643971169159 5.564963053524267 C13.617000881629597 6.985966061295829, 13.287976963441297 8.851953426736529, 12.566514828610833 10.101562500000002 C11.845052693780369 11.351171573263475, 10.393572191262075 12.569108327587587, 9.037666902708803 13.062617493105105 C7.681761614155532 13.556126658622622, 5.786988385844473 13.556126658622622, 4.431083097291201 13.062617493105105 C3.075177808737929 12.569108327587587, 1.6236973062196354 11.351171573263475, 0.9022351713891705 10.101562500000002 C0.1807730365587057 8.851953426736529, -0.14825088162959482 6.985966061295827, 0.10231028830841193 5.5649630535242665 C0.3528714582464187 4.1439600457527055, 1.3002580724019461 2.5030382956246777, 2.405602191017211 1.5755444533706333 C3.510946309632476 0.6480506111165889, 6.012912865169536 0.24014282556177222, 6.734375000000001 0 C7.455837134830466 -0.24014282556177222, 6.734375000000002 0.02244791666666668, 6.734375000000002 0.13468750000000007 M6.734375000000002 0 C8.105153056177885 -0.08598050911048964, 9.957803690367527 0.6480506111165879, 11.06314780898279 1.5755444533706324 C12.168491927598055 2.503038295624677, 13.115878541753585 4.1439600457527055, 13.36643971169159 5.564963053524267 C13.617000881629597 6.985966061295829, 13.287976963441297 8.851953426736529, 12.566514828610833 10.101562500000002 C11.845052693780369 11.351171573263475, 10.393572191262075 12.569108327587587, 9.037666902708803 13.062617493105105 C7.681761614155532 13.556126658622622, 5.786988385844473 13.556126658622622, 4.431083097291201 13.062617493105105 C3.075177808737929 12.569108327587587, 1.6236973062196354 11.351171573263475, 0.9022351713891705 10.101562500000002 C0.1807730365587057 8.851953426736529, -0.14825088162959482 6.985966061295827, 0.10231028830841193 5.5649630535242665 C0.3528714582464187 4.1439600457527055, 1.3002580724019461 2.5030382956246777, 2.405602191017211 1.5755444533706333 C3.510946309632476 0.6480506111165889, 6.012912865169536 0.24014282556177222, 6.734375000000001 0 C7.455837134830466 -0.24014282556177222, 6.734375000000002 0.02244791666666668, 6.734375000000002 0.13468750000000007" stroke="#000000" stroke-width="1" fill="none"></path></g><g transform="translate(31.95380799463237 85.10142633442229) rotate(0 118.3701171875 20.462890625)"><path d="M118.37011718749999 0 C133.9063087246819 -0.31037427555588987, 152.548758701846 0.6686542958473165, 167.43177467333766 1.840434091646575 C182.31479064482932 3.0122138874458333, 196.93322630076057 4.897899128573556, 207.66821301644995 7.03067877479555 C218.40319973213934 9.163458421017545, 227.18574871093958 11.926977231308511, 231.84169496747404 14.637111968978544 C236.4976412240085 17.347246706648576, 237.86449714852876 20.49149686095066, 235.60389055565668 23.291487200815748 C233.3432839627846 26.091477540680835, 227.04857656103272 29.05087079609225, 218.27805541024162 31.437054008169074 C209.50753425945052 33.8232372202459, 196.68355655018223 36.065437423711714, 182.98076365091003 37.60858647327669 C169.27797075163784 39.15173552284166, 152.2315019870296 40.27341532727498, 136.06129801460852 40.695948305558915 C119.89109404218746 41.11848128384285, 101.68845587068166 40.91787273868165, 85.95953981638363 40.14378434298027 C70.23062376208559 39.369695947278885, 54.14610977813831 37.88288455113197, 41.68780168882029 36.05141793135063 C29.229493599502263 34.21995131156928, 18.156388864947033 31.71438494669961, 11.209691280475482 29.154984624292204 C4.262993696003932 26.5955843018848, 0.19313013989877229 23.52196466447945, 0.0076161819909827955 20.695015996906182 C-0.1778977759168067 17.868067329332913, 3.4875675826401773 14.779277633117736, 10.096607533028745 12.193292618852597 C16.705647483417312 9.607307604587458, 27.447097235741055 7.0589598560006666, 39.66185588432239 5.179105911315345 C51.87661453290373 3.299251966630023, 70.2671158739872 1.7773532692932243, 83.38515942451679 0.9141689507406667 C96.50320297504638 0.050984632188109225, 112.53929089366942 0.08415185637344418, 118.37011718749994 0 C124.20094348133047 -0.08415185637344418, 118.37011718749997 0.06820963541666875, 118.37011718749997 0.4092578125000017 M118.37011718749999 0 C133.9063087246819 -0.31037427555588987, 152.548758701846 0.6686542958473165, 167.43177467333766 1.840434091646575 C182.31479064482932 3.0122138874458333, 196.93322630076057 4.897899128573556, 207.66821301644995 7.03067877479555 C218.40319973213934 9.163458421017545, 227.18574871093958 11.926977231308511, 231.84169496747404 14.637111968978544 C236.4976412240085 17.347246706648576, 237.86449714852876 20.49149686095066, 235.60389055565668 23.291487200815748 C233.3432839627846 26.091477540680835, 227.04857656103272 29.05087079609225, 218.27805541024162 31.437054008169074 C209.50753425945052 33.8232372202459, 196.68355655018223 36.065437423711714, 182.98076365091003 37.60858647327669 C169.27797075163784 39.15173552284166, 152.2315019870296 40.27341532727498, 136.06129801460852 40.695948305558915 C119.89109404218746 41.11848128384285, 101.68845587068166 40.91787273868165, 85.95953981638363 40.14378434298027 C70.23062376208559 39.369695947278885, 54.14610977813831 37.88288455113197, 41.68780168882029 36.05141793135063 C29.229493599502263 34.21995131156928, 18.156388864947033 31.71438494669961, 11.209691280475482 29.154984624292204 C4.262993696003932 26.5955843018848, 0.19313013989877229 23.52196466447945, 0.0076161819909827955 20.695015996906182 C-0.1778977759168067 17.868067329332913, 3.4875675826401773 14.779277633117736, 10.096607533028745 12.193292618852597 C16.705647483417312 9.607307604587458, 27.447097235741055 7.0589598560006666, 39.66185588432239 5.179105911315345 C51.87661453290373 3.299251966630023, 70.2671158739872 1.7773532692932243, 83.38515942451679 0.9141689507406667 C96.50320297504638 0.050984632188109225, 112.53929089366942 0.08415185637344418, 118.37011718749994 0 C124.20094348133047 -0.08415185637344418, 118.37011718749997 0.06820963541666875, 118.37011718749997 0.4092578125000017" stroke="#000000" stroke-width="1" fill="none"></path></g><g transform="translate(21.21357361963237 85.12095758442229) rotate(0 129.33984375 20.462890625)"><path d="M129.33984375000009 0 C145.64061887492426 -0.3128739114421541, 165.0747600256317 0.610035290085339, 180.8159757234449 1.690455938470734 C196.5571914212581 2.7708765868561294, 212.06420630973307 4.500191440075523, 223.78713793687928 6.48252389031237 C235.51006956402549 8.464856340549218, 245.385799648908 11.027730560603628, 251.1535654863221 13.584450639891818 C256.9213313237362 16.141170719180007, 259.5340925116434 19.11416208334148, 258.39373296136387 21.82284436604151 C257.25337341108434 24.531526648741544, 252.17148107379379 27.42343271658566, 244.3114081846449 29.83654433609201 C236.45133529549602 32.249655955598364, 224.5144279022421 34.58267133047074, 211.23329562647064 36.30151408307963 C197.95216335069918 38.020356835688524, 181.13247604261565 39.40901694493703, 164.62461453001617 40.14960085174536 C148.1167530174167 40.890184758553694, 129.19326172847386 41.105052933506634, 112.18612655087385 40.74501752392962 C95.17899137327385 40.3849821143526, 77.27826593294733 39.39055748770888, 62.58180346441617 37.98938839428327 C47.88534099588501 36.58821930085765, 33.964968206360496 34.54880231738607, 24.007351739686897 32.33800296337594 C14.049735273013296 30.12720360936581, 6.409661635400321 27.37975004075149, 2.8361046643745595 24.724592270222487 C-0.737452306651202 22.069434499693486, -0.8349214721768141 19.06788306709271, 2.5660099135323264 16.40705634020193 C5.966941299241467 13.746229613311153, 13.428180618936024 10.986501497836656, 23.241692978629402 8.759631908877822 C33.05520533832278 6.532762319918987, 46.84239511823798 4.470824263206857, 61.4470840716926 3.0458388064489235 C76.05177302514723 1.6208533496909905, 99.55436675297256 0.7173589694050447, 110.86982669935713 0.2097191683302242 C122.18528664574171 -0.29792063274459635, 126.2615075748929 -0.03325644069496292, 129.33984375000006 0 C132.4181799251072 0.03325644069496292, 129.33984375000009 0.06820963541666875, 129.33984375000009 0.4092578125000017 M129.33984375000009 0 C145.64061887492426 -0.3128739114421541, 165.0747600256317 0.610035290085339, 180.8159757234449 1.690455938470734 C196.5571914212581 2.7708765868561294, 212.06420630973307 4.500191440075523, 223.78713793687928 6.48252389031237 C235.51006956402549 8.464856340549218, 245.385799648908 11.027730560603628, 251.1535654863221 13.584450639891818 C256.9213313237362 16.141170719180007, 259.5340925116434 19.11416208334148, 258.39373296136387 21.82284436604151 C257.25337341108434 24.531526648741544, 252.17148107379379 27.42343271658566, 244.3114081846449 29.83654433609201 C236.45133529549602 32.249655955598364, 224.5144279022421 34.58267133047074, 211.23329562647064 36.30151408307963 C197.95216335069918 38.020356835688524, 181.13247604261565 39.40901694493703, 164.62461453001617 40.14960085174536 C148.1167530174167 40.890184758553694, 129.19326172847386 41.105052933506634, 112.18612655087385 40.74501752392962 C95.17899137327385 40.3849821143526, 77.27826593294733 39.39055748770888, 62.58180346441617 37.98938839428327 C47.88534099588501 36.58821930085765, 33.964968206360496 34.54880231738607, 24.007351739686897 32.33800296337594 C14.049735273013296 30.12720360936581, 6.409661635400321 27.37975004075149, 2.8361046643745595 24.724592270222487 C-0.737452306651202 22.069434499693486, -0.8349214721768141 19.06788306709271, 2.5660099135323264 16.40705634020193 C5.966941299241467 13.746229613311153, 13.428180618936024 10.986501497836656, 23.241692978629402 8.759631908877822 C33.05520533832278 6.532762319918987, 46.84239511823798 4.470824263206857, 61.4470840716926 3.0458388064489235 C76.05177302514723 1.6208533496909905, 99.55436675297256 0.7173589694050447, 110.86982669935713 0.2097191683302242 C122.18528664574171 -0.29792063274459635, 126.2615075748929 -0.03325644069496292, 129.33984375000006 0 C132.4181799251072 0.03325644069496292, 129.33984375000009 0.06820963541666875, 129.33984375000009 0.4092578125000017" stroke="#000000" stroke-width="1" fill="none"></path></g><g transform="translate(10 85.09891003840994) rotate(0 140.0005511886502 20.462890625)"><path d="M140.0005511886504 0 C157.01074723026773 -0.3149454244773893, 177.1819184285449 0.5620115004678514, 193.71695974112617 1.5661651563566288 C210.25200105370746 2.5703188122454064, 226.57726585492946 4.170324135696053, 239.2107990641381 6.024921935332664 C251.8443322733467 7.879519734969274, 262.7199955209964 10.272600151835547, 269.5181589963779 12.69375195417629 C276.3163224717594 15.114903756517034, 280.07760618867974 17.93474160093833, 279.9997799164272 20.551832749377123 C279.92195364417466 23.168923897815915, 275.9931042275567 25.98387616691044, 269.05120136286257 28.396298844809042 C262.1092984981684 30.808721522707643, 251.09171945191048 33.18789306666927, 238.3483627282622 35.02636881676872 C225.60500600461393 36.86484456686818, 209.1851988817832 38.44404680242846, 192.59106102097286 39.42715334540577 C175.9969231601625 40.41025988838308, 156.68832853581205 40.947758491540576, 138.78353556340002 40.92500807463258 C120.878742590988 40.90225765772458, 101.63699842194947 40.315775730334, 85.16230318650074 39.290650843957806 C68.687607951052 38.26552595758161, 52.458119147837785 36.644838456304235, 39.93536415070757 34.7742587563754 C27.412609153577357 32.90367905644657, 16.679683562511038 30.4968706082649, 10.025773203719439 28.067172644384826 C3.37186284492784 25.637474680504752, -0.22157093758205804 22.812964351780952, 0.011901997957977528 20.19607097309496 C0.2453749334980131 17.57917759440897, 4.341493152405664 14.769323622469708, 11.426610816959652 12.365812372268891 C18.51172848151364 9.962301122068075, 29.670390744035167 7.597218241527144, 42.52260798528191 5.775003471890061 C55.37482522652865 3.9527887022529784, 72.29359039721203 2.39502433309474, 88.5399142644401 1.4325237544463967 C104.78623813166817 0.4700231757980532, 131.42377836794867 0.1705443236577325, 140.00055118865038 0 C148.57732400935208 -0.1705443236577325, 140.0005511886504 0.06820963541666875, 140.0005511886504 0.4092578125000017 M140.0005511886504 0 C157.01074723026773 -0.3149454244773893, 177.1819184285449 0.5620115004678514, 193.71695974112617 1.5661651563566288 C210.25200105370746 2.5703188122454064, 226.57726585492946 4.170324135696053, 239.2107990641381 6.024921935332664 C251.8443322733467 7.879519734969274, 262.7199955209964 10.272600151835547, 269.5181589963779 12.69375195417629 C276.3163224717594 15.114903756517034, 280.07760618867974 17.93474160093833, 279.9997799164272 20.551832749377123 C279.92195364417466 23.168923897815915, 275.9931042275567 25.98387616691044, 269.05120136286257 28.396298844809042 C262.1092984981684 30.808721522707643, 251.09171945191048 33.18789306666927, 238.3483627282622 35.02636881676872 C225.60500600461393 36.86484456686818, 209.1851988817832 38.44404680242846, 192.59106102097286 39.42715334540577 C175.9969231601625 40.41025988838308, 156.68832853581205 40.947758491540576, 138.78353556340002 40.92500807463258 C120.878742590988 40.90225765772458, 101.63699842194947 40.315775730334, 85.16230318650074 39.290650843957806 C68.687607951052 38.26552595758161, 52.458119147837785 36.644838456304235, 39.93536415070757 34.7742587563754 C27.412609153577357 32.90367905644657, 16.679683562511038 30.4968706082649, 10.025773203719439 28.067172644384826 C3.37186284492784 25.637474680504752, -0.22157093758205804 22.812964351780952, 0.011901997957977528 20.19607097309496 C0.2453749334980131 17.57917759440897, 4.341493152405664 14.769323622469708, 11.426610816959652 12.365812372268891 C18.51172848151364 9.962301122068075, 29.670390744035167 7.597218241527144, 42.52260798528191 5.775003471890061 C55.37482522652865 3.9527887022529784, 72.29359039721203 2.39502433309474, 88.5399142644401 1.4325237544463967 C104.78623813166817 0.4700231757980532, 131.42377836794867 0.1705443236577325, 140.00055118865038 0 C148.57732400935208 -0.1705443236577325, 140.0005511886504 0.06820963541666875, 140.0005511886504 0.4092578125000017" stroke="#000000" stroke-width="1" fill="none"></path></g><g transform="translate(51.04161940792801 10) rotate(0 98.83355034722217 98.83355034722217)"><path d="M98.83355034722217 0 C110.91154839610911 -1.5196245194489155, 125.24577209949264 2.7497175222980346, 136.97459681739147 7.656079180287051 C148.70342153529032 12.562440838276068, 160.27966352178987 20.38558310805594, 169.20649865461516 29.4381699479341 C178.13333378744045 38.49075678781226, 185.7937854704087 50.175294156322856, 190.53560761434323 61.97160021955602 C195.27742975827778 73.76790628278918, 197.83526693812826 87.5035679874391, 197.65743151822232 100.21600632733308 C197.4795960983164 112.92844466722705, 194.5385362594373 126.58718181702773, 189.46859509490773 138.24623025891987 C184.39865393037815 149.905278700812, 176.41435179571155 161.37096022986077, 167.23778453104475 170.17029697868594 C158.06121726637795 178.9696337275111, 146.270670781006 186.4658959347378, 134.4091915069069 191.0422507518708 C122.54771223280778 195.6186055690038, 108.77761601922914 197.98406192497396, 96.06890888645005 197.62842588148396 C83.36020175367095 197.27278983799397, 69.74393959828107 194.1409631475609, 58.15694871023234 188.90843449093083 C46.56995782218361 183.67590583430075, 35.21708019311741 175.5320060901573, 26.546963558157657 166.23325394170354 C17.876846923197903 156.93450179324978, 10.546240954366453 145.04025319853204, 6.136248900473831 133.11592160020825 C1.726256846581208 121.19159000188446, -0.4463558464369015 107.38975361720911, 0.08701123480192052 94.68726435176079 C0.6203783160407426 81.98477508631247, 3.9423590664391215 68.41365216309073, 9.336451387906763 56.90098600751829 C14.730543709374405 45.38831985194585, 23.03244757978011 34.150467493521035, 32.45156516360777 25.611267418326165 C41.870682747435424 17.072067343131295, 54.787492693603625 9.93433012607009, 65.85115689087269 5.665785556349064 C76.91482108814175 1.397240986628037, 93.33648477116391 0.6148524249007702, 98.83355034722216 0 C104.3306159232804 -0.6148524249007702, 98.83355034722217 0.32944516782407374, 98.83355034722217 1.9766710069444429 M98.83355034722217 0 C110.91154839610911 -1.5196245194489155, 125.24577209949264 2.7497175222980346, 136.97459681739147 7.656079180287051 C148.70342153529032 12.562440838276068, 160.27966352178987 20.38558310805594, 169.20649865461516 29.4381699479341 C178.13333378744045 38.49075678781226, 185.7937854704087 50.175294156322856, 190.53560761434323 61.97160021955602 C195.27742975827778 73.76790628278918, 197.83526693812826 87.5035679874391, 197.65743151822232 100.21600632733308 C197.4795960983164 112.92844466722705, 194.5385362594373 126.58718181702773, 189.46859509490773 138.24623025891987 C184.39865393037815 149.905278700812, 176.41435179571155 161.37096022986077, 167.23778453104475 170.17029697868594 C158.06121726637795 178.9696337275111, 146.270670781006 186.4658959347378, 134.4091915069069 191.0422507518708 C122.54771223280778 195.6186055690038, 108.77761601922914 197.98406192497396, 96.06890888645005 197.62842588148396 C83.36020175367095 197.27278983799397, 69.74393959828107 194.1409631475609, 58.15694871023234 188.90843449093083 C46.56995782218361 183.67590583430075, 35.21708019311741 175.5320060901573, 26.546963558157657 166.23325394170354 C17.876846923197903 156.93450179324978, 10.546240954366453 145.04025319853204, 6.136248900473831 133.11592160020825 C1.726256846581208 121.19159000188446, -0.4463558464369015 107.38975361720911, 0.08701123480192052 94.68726435176079 C0.6203783160407426 81.98477508631247, 3.9423590664391215 68.41365216309073, 9.336451387906763 56.90098600751829 C14.730543709374405 45.38831985194585, 23.03244757978011 34.150467493521035, 32.45156516360777 25.611267418326165 C41.870682747435424 17.072067343131295, 54.787492693603625 9.93433012607009, 65.85115689087269 5.665785556349064 C76.91482108814175 1.397240986628037, 93.33648477116391 0.6148524249007702, 98.83355034722216 0 C104.3306159232804 -0.6148524249007702, 98.83355034722217 0.32944516782407374, 98.83355034722217 1.9766710069444429" stroke="none" stroke-width="0" fill="#ffffff"></path><path d="M98.83355034722217 0 C110.91154839610911 -1.5196245194489155, 125.24577209949264 2.7497175222980346, 136.97459681739147 7.656079180287051 C148.70342153529032 12.562440838276068, 160.27966352178987 20.38558310805594, 169.20649865461516 29.4381699479341 C178.13333378744045 38.49075678781226, 185.7937854704087 50.175294156322856, 190.53560761434323 61.97160021955602 C195.27742975827778 73.76790628278918, 197.83526693812826 87.5035679874391, 197.65743151822232 100.21600632733308 C197.4795960983164 112.92844466722705, 194.5385362594373 126.58718181702773, 189.46859509490773 138.24623025891987 C184.39865393037815 149.905278700812, 176.41435179571155 161.37096022986077, 167.23778453104475 170.17029697868594 C158.06121726637795 178.9696337275111, 146.270670781006 186.4658959347378, 134.4091915069069 191.0422507518708 C122.54771223280778 195.6186055690038, 108.77761601922914 197.98406192497396, 96.06890888645005 197.62842588148396 C83.36020175367095 197.27278983799397, 69.74393959828107 194.1409631475609, 58.15694871023234 188.90843449093083 C46.56995782218361 183.67590583430075, 35.21708019311741 175.5320060901573, 26.546963558157657 166.23325394170354 C17.876846923197903 156.93450179324978, 10.546240954366453 145.04025319853204, 6.136248900473831 133.11592160020825 C1.726256846581208 121.19159000188446, -0.4463558464369015 107.38975361720911, 0.08701123480192052 94.68726435176079 C0.6203783160407426 81.98477508631247, 3.9423590664391215 68.41365216309073, 9.336451387906763 56.90098600751829 C14.730543709374405 45.38831985194585, 23.03244757978011 34.150467493521035, 32.45156516360777 25.611267418326165 C41.870682747435424 17.072067343131295, 54.787492693603625 9.93433012607009, 65.85115689087269 5.665785556349064 C76.91482108814175 1.397240986628037, 93.33648477116391 0.6148524249007702, 98.83355034722216 0 C104.3306159232804 -0.6148524249007702, 98.83355034722217 0.32944516782407374, 98.83355034722217 1.9766710069444429 M98.83355034722217 0 C110.91154839610911 -1.5196245194489155, 125.24577209949264 2.7497175222980346, 136.97459681739147 7.656079180287051 C148.70342153529032 12.562440838276068, 160.27966352178987 20.38558310805594, 169.20649865461516 29.4381699479341 C178.13333378744045 38.49075678781226, 185.7937854704087 50.175294156322856, 190.53560761434323 61.97160021955602 C195.27742975827778 73.76790628278918, 197.83526693812826 87.5035679874391, 197.65743151822232 100.21600632733308 C197.4795960983164 112.92844466722705, 194.5385362594373 126.58718181702773, 189.46859509490773 138.24623025891987 C184.39865393037815 149.905278700812, 176.41435179571155 161.37096022986077, 167.23778453104475 170.17029697868594 C158.06121726637795 178.9696337275111, 146.270670781006 186.4658959347378, 134.4091915069069 191.0422507518708 C122.54771223280778 195.6186055690038, 108.77761601922914 197.98406192497396, 96.06890888645005 197.62842588148396 C83.36020175367095 197.27278983799397, 69.74393959828107 194.1409631475609, 58.15694871023234 188.90843449093083 C46.56995782218361 183.67590583430075, 35.21708019311741 175.5320060901573, 26.546963558157657 166.23325394170354 C17.876846923197903 156.93450179324978, 10.546240954366453 145.04025319853204, 6.136248900473831 133.11592160020825 C1.726256846581208 121.19159000188446, -0.4463558464369015 107.38975361720911, 0.08701123480192052 94.68726435176079 C0.6203783160407426 81.98477508631247, 3.9423590664391215 68.41365216309073, 9.336451387906763 56.90098600751829 C14.730543709374405 45.38831985194585, 23.03244757978011 34.150467493521035, 32.45156516360777 25.611267418326165 C41.870682747435424 17.072067343131295, 54.787492693603625 9.93433012607009, 65.85115689087269 5.665785556349064 C76.91482108814175 1.397240986628037, 93.33648477116391 0.6148524249007702, 98.83355034722216 0 C104.3306159232804 -0.6148524249007702, 98.83355034722217 0.32944516782407374, 98.83355034722217 1.9766710069444429" stroke="#000000" stroke-width="1" fill="none"></path></g></svg>