<svg version="1.1" xmlns="http://www.w3.org/2000/svg" viewBox="0 0 217.66710069444525 366.5063344054633" width="435.3342013888905" height="733.0126688109266">
  <!-- svg-source:excalidraw -->
  <g transform="translate(135.67948069852991 347.2289906554633) rotate(0 2.326171875 2.326171875)"><path d="M2.326171875 0 C2.7996627870962465 -0.029699183976390042, 3.4396009846948146 0.22384810842223218, 3.8214063342513054 0.5442208364165961 C4.203211683807796 0.8645935644109601, 4.530455725994349 1.431396871952283, 4.617003972338945 1.9222363679661836 C4.703552218683541 2.413075863980084, 4.5899015555274305 3.057620803724827, 4.34069581231888 3.4892578125 C4.091490069110329 3.920894821275173, 3.5901231089887267 4.341591652597684, 3.12176951308764 4.512058420617221 C2.6534159171865532 4.682525188636758, 1.9989278328134472 4.682525188636758, 1.5305742369123605 4.512058420617221 C1.0622206410112738 4.341591652597684, 0.560853680889671 3.920894821275173, 0.3116479376811201 3.4892578125 C0.062442194472569185 3.057620803724827, -0.051208468683540606 2.4130758639800836, 0.035339777661055116 1.9222363679661831 C0.12188802400565084 1.4313968719522825, 0.44913206619220364 0.8645935644109601, 0.8309374157486944 0.5442208364165964 C1.2127427653051852 0.22384810842223252, 2.0769661317914485 0.08294956648609941, 2.3261718749999996 0 C2.5753776182085506 -0.08294956648609941, 2.326171875 0.007753906249999908, 2.326171875 0.046523437499999876 M2.326171875 0 C2.7996627870962465 -0.029699183976390042, 3.4396009846948146 0.22384810842223218, 3.8214063342513054 0.5442208364165961 C4.203211683807796 0.8645935644109601, 4.530455725994349 1.431396871952283, 4.617003972338945 1.9222363679661836 C4.703552218683541 2.413075863980084, 4.5899015555274305 3.057620803724827, 4.34069581231888 3.4892578125 C4.091490069110329 3.920894821275173, 3.5901231089887267 4.341591652597684, 3.12176951308764 4.512058420617221 C2.6534159171865532 4.682525188636758, 1.9989278328134472 4.682525188636758, 1.5305742369123605 4.512058420617221 C1.0622206410112738 4.341591652597684, 0.560853680889671 3.920894821275173, 0.3116479376811201 3.4892578125 C0.062442194472569185 3.057620803724827, -0.051208468683540606 2.4130758639800836, 0.035339777661055116 1.9222363679661831 C0.12188802400565084 1.4313968719522825, 0.44913206619220364 0.8645935644109601, 0.8309374157486944 0.5442208364165964 C1.2127427653051852 0.22384810842223252, 2.0769661317914485 0.08294956648609941, 2.3261718749999996 0 C2.5753776182085506 -0.08294956648609941, 2.326171875 0.007753906249999908, 2.326171875 0.046523437499999876" stroke="#000000" stroke-width="1" fill="none"></path></g><g transform="translate(145.71541819852973 347.21063128046325) rotate(0 2.326171875 2.326171875)"><path d="M2.326171875 0 C2.7996627870962465 -0.029699183976390042, 3.4396009846948146 0.22384810842223218, 3.8214063342513054 0.5442208364165961 C4.203211683807796 0.8645935644109601, 4.530455725994349 1.431396871952283, 4.617003972338945 1.9222363679661836 C4.703552218683541 2.413075863980084, 4.5899015555274305 3.057620803724827, 4.34069581231888 3.4892578125 C4.091490069110329 3.920894821275173, 3.5901231089887267 4.341591652597684, 3.12176951308764 4.512058420617221 C2.6534159171865532 4.682525188636758, 1.9989278328134472 4.682525188636758, 1.5305742369123605 4.512058420617221 C1.0622206410112738 4.341591652597684, 0.560853680889671 3.920894821275173, 0.3116479376811201 3.4892578125 C0.062442194472569185 3.057620803724827, -0.051208468683540606 2.4130758639800836, 0.035339777661055116 1.9222363679661831 C0.12188802400565084 1.4313968719522825, 0.44913206619220364 0.8645935644109601, 0.8309374157486944 0.5442208364165964 C1.2127427653051852 0.22384810842223252, 2.0769661317914485 0.08294956648609941, 2.3261718749999996 0 C2.5753776182085506 -0.08294956648609941, 2.326171875 0.007753906249999908, 2.326171875 0.046523437499999876 M2.326171875 0 C2.7996627870962465 -0.029699183976390042, 3.4396009846948146 0.22384810842223218, 3.8214063342513054 0.5442208364165961 C4.203211683807796 0.8645935644109601, 4.530455725994349 1.431396871952283, 4.617003972338945 1.9222363679661836 C4.703552218683541 2.413075863980084, 4.5899015555274305 3.057620803724827, 4.34069581231888 3.4892578125 C4.091490069110329 3.920894821275173, 3.5901231089887267 4.341591652597684, 3.12176951308764 4.512058420617221 C2.6534159171865532 4.682525188636758, 1.9989278328134472 4.682525188636758, 1.5305742369123605 4.512058420617221 C1.0622206410112738 4.341591652597684, 0.560853680889671 3.920894821275173, 0.3116479376811201 3.4892578125 C0.062442194472569185 3.057620803724827, -0.051208468683540606 2.4130758639800836, 0.035339777661055116 1.9222363679661831 C0.12188802400565084 1.4313968719522825, 0.44913206619220364 0.8645935644109601, 0.8309374157486944 0.5442208364165964 C1.2127427653051852 0.22384810842223252, 2.0769661317914485 0.08294956648609941, 2.3261718749999996 0 C2.5753776182085506 -0.08294956648609941, 2.326171875 0.007753906249999908, 2.326171875 0.046523437499999876" stroke="#000000" stroke-width="1" fill="none"></path></g><g transform="translate(109.84041819852882 346.1469594054633) rotate(0 3.66015625 3.66015625)"><path d="M3.6601562500000027 0 C4.405178894221973 -0.046730705937661675, 5.412100961644069 0.3522177625384243, 6.012859337016751 0.8563138937403036 C6.613617712389433 1.3604100249421829, 7.128525634352154 2.2522567070013264, 7.264706502236094 3.0245767872112763 C7.400887370120034 3.7968968674212262, 7.222061725489849 4.811067494693812, 6.829944544320391 5.4902343750000036 C6.437827363150933 6.169401255306195, 5.648942658475967 6.8313541200403565, 4.9120034152193455 7.099578069048427 C4.175064171962724 7.367802018056497, 3.1452483280372814 7.367802018056497, 2.4083090847806594 7.099578069048427 C1.6713698415240374 6.8313541200403565, 0.8824851368490714 6.169401255306195, 0.4903679556796132 5.4902343750000036 C0.09825077451015507 4.811067494693812, -0.08057487012002942 3.796896867421226, 0.05560599776391051 3.024576787211276 C0.19178686564785044 2.252256707001326, 0.706694787610571 1.3604100249421833, 1.3074531629832529 0.8563138937403041 C1.9082115383559346 0.35221776253842474, 3.268039068830543 0.13051846145671733, 3.6601562500000013 0 C4.05227343116946 -0.13051846145671733, 3.660156250000002 0.01220052083333334, 3.660156250000002 0.07320312500000004 M3.6601562500000027 0 C4.405178894221973 -0.046730705937661675, 5.412100961644069 0.3522177625384243, 6.012859337016751 0.8563138937403036 C6.613617712389433 1.3604100249421829, 7.128525634352154 2.2522567070013264, 7.264706502236094 3.0245767872112763 C7.400887370120034 3.7968968674212262, 7.222061725489849 4.811067494693812, 6.829944544320391 5.4902343750000036 C6.437827363150933 6.169401255306195, 5.648942658475967 6.8313541200403565, 4.9120034152193455 7.099578069048427 C4.175064171962724 7.367802018056497, 3.1452483280372814 7.367802018056497, 2.4083090847806594 7.099578069048427 C1.6713698415240374 6.8313541200403565, 0.8824851368490714 6.169401255306195, 0.4903679556796132 5.4902343750000036 C0.09825077451015507 4.811067494693812, -0.08057487012002942 3.796896867421226, 0.05560599776391051 3.024576787211276 C0.19178686564785044 2.252256707001326, 0.706694787610571 1.3604100249421833, 1.3074531629832529 0.8563138937403041 C1.9082115383559346 0.35221776253842474, 3.268039068830543 0.13051846145671733, 3.6601562500000013 0 C4.05227343116946 -0.13051846145671733, 3.660156250000002 0.01220052083333334, 3.660156250000002 0.07320312500000004" stroke="#000000" stroke-width="1" fill="none"></path></g><g transform="translate(122.58768382352991 346.0176625304634) rotate(0 3.66015625 3.66015625)"><path d="M3.6601562500000027 0 C4.405178894221973 -0.046730705937661675, 5.412100961644069 0.3522177625384243, 6.012859337016751 0.8563138937403036 C6.613617712389433 1.3604100249421829, 7.128525634352154 2.2522567070013264, 7.264706502236094 3.0245767872112763 C7.400887370120034 3.7968968674212262, 7.222061725489849 4.811067494693812, 6.829944544320391 5.4902343750000036 C6.437827363150933 6.169401255306195, 5.648942658475967 6.8313541200403565, 4.9120034152193455 7.099578069048427 C4.175064171962724 7.367802018056497, 3.1452483280372814 7.367802018056497, 2.4083090847806594 7.099578069048427 C1.6713698415240374 6.8313541200403565, 0.8824851368490714 6.169401255306195, 0.4903679556796132 5.4902343750000036 C0.09825077451015507 4.811067494693812, -0.08057487012002942 3.796896867421226, 0.05560599776391051 3.024576787211276 C0.19178686564785044 2.252256707001326, 0.706694787610571 1.3604100249421833, 1.3074531629832529 0.8563138937403041 C1.9082115383559346 0.35221776253842474, 3.268039068830543 0.13051846145671733, 3.6601562500000013 0 C4.05227343116946 -0.13051846145671733, 3.660156250000002 0.01220052083333334, 3.660156250000002 0.07320312500000004 M3.6601562500000027 0 C4.405178894221973 -0.046730705937661675, 5.412100961644069 0.3522177625384243, 6.012859337016751 0.8563138937403036 C6.613617712389433 1.3604100249421829, 7.128525634352154 2.2522567070013264, 7.264706502236094 3.0245767872112763 C7.400887370120034 3.7968968674212262, 7.222061725489849 4.811067494693812, 6.829944544320391 5.4902343750000036 C6.437827363150933 6.169401255306195, 5.648942658475967 6.8313541200403565, 4.9120034152193455 7.099578069048427 C4.175064171962724 7.367802018056497, 3.1452483280372814 7.367802018056497, 2.4083090847806594 7.099578069048427 C1.6713698415240374 6.8313541200403565, 0.8824851368490714 6.169401255306195, 0.4903679556796132 5.4902343750000036 C0.09825077451015507 4.811067494693812, -0.08057487012002942 3.796896867421226, 0.05560599776391051 3.024576787211276 C0.19178686564785044 2.252256707001326, 0.706694787610571 1.3604100249421833, 1.3074531629832529 0.8563138937403041 C1.9082115383559346 0.35221776253842474, 3.268039068830543 0.13051846145671733, 3.6601562500000013 0 C4.05227343116946 -0.13051846145671733, 3.660156250000002 0.01220052083333334, 3.660156250000002 0.07320312500000004" stroke="#000000" stroke-width="1" fill="none"></path></g><g transform="translate(89.15096507352973 343.0375844054633) rotate(0 6.734375 6.734375)"><path d="M6.734375000000002 0 C8.105153056177885 -0.08598050911048964, 9.957803690367527 0.6480506111165879, 11.06314780898279 1.5755444533706324 C12.168491927598055 2.503038295624677, 13.115878541753585 4.1439600457527055, 13.36643971169159 5.564963053524267 C13.617000881629597 6.985966061295829, 13.287976963441297 8.851953426736529, 12.566514828610833 10.101562500000002 C11.845052693780369 11.351171573263475, 10.393572191262075 12.569108327587587, 9.037666902708803 13.062617493105105 C7.681761614155532 13.556126658622622, 5.786988385844473 13.556126658622622, 4.431083097291201 13.062617493105105 C3.075177808737929 12.569108327587587, 1.6236973062196354 11.351171573263475, 0.9022351713891705 10.101562500000002 C0.1807730365587057 8.851953426736529, -0.14825088162959482 6.985966061295827, 0.10231028830841193 5.5649630535242665 C0.3528714582464187 4.1439600457527055, 1.3002580724019461 2.5030382956246777, 2.405602191017211 1.5755444533706333 C3.510946309632476 0.6480506111165889, 6.012912865169536 0.24014282556177222, 6.734375000000001 0 C7.455837134830466 -0.24014282556177222, 6.734375000000002 0.02244791666666668, 6.734375000000002 0.13468750000000007 M6.734375000000002 0 C8.105153056177885 -0.08598050911048964, 9.957803690367527 0.6480506111165879, 11.06314780898279 1.5755444533706324 C12.168491927598055 2.503038295624677, 13.115878541753585 4.1439600457527055, 13.36643971169159 5.564963053524267 C13.617000881629597 6.985966061295829, 13.287976963441297 8.851953426736529, 12.566514828610833 10.101562500000002 C11.845052693780369 11.351171573263475, 10.393572191262075 12.569108327587587, 9.037666902708803 13.062617493105105 C7.681761614155532 13.556126658622622, 5.786988385844473 13.556126658622622, 4.431083097291201 13.062617493105105 C3.075177808737929 12.569108327587587, 1.6236973062196354 11.351171573263475, 0.9022351713891705 10.101562500000002 C0.1807730365587057 8.851953426736529, -0.14825088162959482 6.985966061295827, 0.10231028830841193 5.5649630535242665 C0.3528714582464187 4.1439600457527055, 1.3002580724019461 2.5030382956246777, 2.405602191017211 1.5755444533706333 C3.510946309632476 0.6480506111165889, 6.012912865169536 0.24014282556177222, 6.734375000000001 0 C7.455837134830466 -0.24014282556177222, 6.734375000000002 0.02244791666666668, 6.734375000000002 0.13468750000000007" stroke="#000000" stroke-width="1" fill="none"></path></g><g transform="translate(69.0497931985301 342.91297503046343) rotate(0 6.734375 6.734375)"><path d="M6.734375000000002 0 C8.105153056177885 -0.08598050911048964, 9.957803690367527 0.6480506111165879, 11.06314780898279 1.5755444533706324 C12.168491927598055 2.503038295624677, 13.115878541753585 4.1439600457527055, 13.36643971169159 5.564963053524267 C13.617000881629597 6.985966061295829, 13.287976963441297 8.851953426736529, 12.566514828610833 10.101562500000002 C11.845052693780369 11.351171573263475, 10.393572191262075 12.569108327587587, 9.037666902708803 13.062617493105105 C7.681761614155532 13.556126658622622, 5.786988385844473 13.556126658622622, 4.431083097291201 13.062617493105105 C3.075177808737929 12.569108327587587, 1.6236973062196354 11.351171573263475, 0.9022351713891705 10.101562500000002 C0.1807730365587057 8.851953426736529, -0.14825088162959482 6.985966061295827, 0.10231028830841193 5.5649630535242665 C0.3528714582464187 4.1439600457527055, 1.3002580724019461 2.5030382956246777, 2.405602191017211 1.5755444533706333 C3.510946309632476 0.6480506111165889, 6.012912865169536 0.24014282556177222, 6.734375000000001 0 C7.455837134830466 -0.24014282556177222, 6.734375000000002 0.02244791666666668, 6.734375000000002 0.13468750000000007 M6.734375000000002 0 C8.105153056177885 -0.08598050911048964, 9.957803690367527 0.6480506111165879, 11.06314780898279 1.5755444533706324 C12.168491927598055 2.503038295624677, 13.115878541753585 4.1439600457527055, 13.36643971169159 5.564963053524267 C13.617000881629597 6.985966061295829, 13.287976963441297 8.851953426736529, 12.566514828610833 10.101562500000002 C11.845052693780369 11.351171573263475, 10.393572191262075 12.569108327587587, 9.037666902708803 13.062617493105105 C7.681761614155532 13.556126658622622, 5.786988385844473 13.556126658622622, 4.431083097291201 13.062617493105105 C3.075177808737929 12.569108327587587, 1.6236973062196354 11.351171573263475, 0.9022351713891705 10.101562500000002 C0.1807730365587057 8.851953426736529, -0.14825088162959482 6.985966061295827, 0.10231028830841193 5.5649630535242665 C0.3528714582464187 4.1439600457527055, 1.3002580724019461 2.5030382956246777, 2.405602191017211 1.5755444533706333 C3.510946309632476 0.6480506111165889, 6.012912865169536 0.24014282556177222, 6.734375000000001 0 C7.455837134830466 -0.24014282556177222, 6.734375000000002 0.02244791666666668, 6.734375000000002 0.13468750000000007" stroke="#000000" stroke-width="1" fill="none"></path></g><g transform="translate(79.04251063273296 1.5378021503307764) rotate(18.854857177614278 31.36753769545294 163.8690764922171)"><path d="M31.36753769545273 0 C34.89113834305679 -2.5535361224701254, 39.0268554462332 3.7833202212546055, 42.494697635255015 10.656909144009461 C45.96253982427683 17.530498066764316, 49.39900861337921 28.388376871965633, 52.17459082958362 41.24153353652913 C54.950173045788034 54.09469020109263, 57.42587795494244 70.61488520259053, 59.1481909324815 87.77584913139047 C60.87050391002055 104.93681306019042, 62.06343955725988 124.97060625772639, 62.50846869481796 144.20731710932878 C62.95349783237603 163.44402796093118, 62.70850368248017 184.38570119844843, 61.81836575782992 203.19611424100486 C60.928227833179676 222.0065272835613, 59.27716932961291 241.13227795237964, 57.16764114691648 257.06979536466747 C55.05811296422005 273.0073127769553, 52.21573691389187 287.8295283079241, 49.16119666165136 298.82121871473186 C46.10665640941085 309.81290912153963, 42.442659694367144 318.4037211503801, 38.84039963347344 323.01993780551413 C35.23813957257973 327.6361544606482, 31.229084103487324 328.8781892250329, 27.54763629628912 326.51851864553606 C23.866188489090916 324.15884806603924, 20.03351663692016 317.89055889809055, 16.751712790284227 308.8619143285333 C13.469908943648294 299.8332697589761, 10.312121543110697 286.8699488368297, 7.856813216473519 272.3466512281926 C5.401504889836341 257.8233536195556, 3.3293231598950737 239.85109006056254, 2.0198628304611574 221.72212867671087 C0.7104025010272412 203.5931672928592, -0.0066528787780200105 182.9495440499506, 0.00005123987002164654 163.57288292508252 C0.0067553585180633036 144.19622180021446, 0.7380909544558314 123.56627526966594, 2.0600875423494074 105.4621619275025 C3.3820841302429834 87.35804858533908, 5.466688703722266 69.42503628623804, 7.932030767231478 54.948202872101945 C10.39737283074069 40.47136945796586, 13.56410991091171 27.567769083368702, 16.85213992340468 18.601161442685964 C20.140169935897646 9.634553802003225, 25.240977880181273 4.248750601786506, 27.66021084218928 1.1485570280055128 C30.079443804197286 -1.951636545775481, 30.749649886575476 -0.35480408363980587, 31.367537695452718 0 C31.98542550432996 0.35480408363980587, 31.36753769545273 0.5462302549740627, 31.36753769545273 3.277381529844348 M31.36753769545273 0 C34.89113834305679 -2.5535361224701254, 39.0268554462332 3.7833202212546055, 42.494697635255015 10.656909144009461 C45.96253982427683 17.530498066764316, 49.39900861337921 28.388376871965633, 52.17459082958362 41.24153353652913 C54.950173045788034 54.09469020109263, 57.42587795494244 70.61488520259053, 59.1481909324815 87.77584913139047 C60.87050391002055 104.93681306019042, 62.06343955725988 124.97060625772639, 62.50846869481796 144.20731710932878 C62.95349783237603 163.44402796093118, 62.70850368248017 184.38570119844843, 61.81836575782992 203.19611424100486 C60.928227833179676 222.0065272835613, 59.27716932961291 241.13227795237964, 57.16764114691648 257.06979536466747 C55.05811296422005 273.0073127769553, 52.21573691389187 287.8295283079241, 49.16119666165136 298.82121871473186 C46.10665640941085 309.81290912153963, 42.442659694367144 318.4037211503801, 38.84039963347344 323.01993780551413 C35.23813957257973 327.6361544606482, 31.229084103487324 328.8781892250329, 27.54763629628912 326.51851864553606 C23.866188489090916 324.15884806603924, 20.03351663692016 317.89055889809055, 16.751712790284227 308.8619143285333 C13.469908943648294 299.8332697589761, 10.312121543110697 286.8699488368297, 7.856813216473519 272.3466512281926 C5.401504889836341 257.8233536195556, 3.3293231598950737 239.85109006056254, 2.0198628304611574 221.72212867671087 C0.7104025010272412 203.5931672928592, -0.0066528787780200105 182.9495440499506, 0.00005123987002164654 163.57288292508252 C0.0067553585180633036 144.19622180021446, 0.7380909544558314 123.56627526966594, 2.0600875423494074 105.4621619275025 C3.3820841302429834 87.35804858533908, 5.466688703722266 69.42503628623804, 7.932030767231478 54.948202872101945 C10.39737283074069 40.47136945796586, 13.56410991091171 27.567769083368702, 16.85213992340468 18.601161442685964 C20.140169935897646 9.634553802003225, 25.240977880181273 4.248750601786506, 27.66021084218928 1.1485570280055128 C30.079443804197286 -1.951636545775481, 30.749649886575476 -0.35480408363980587, 31.367537695452718 0 C31.98542550432996 0.35480408363980587, 31.36753769545273 0.5462302549740627, 31.36753769545273 3.277381529844348" stroke="#000000" stroke-width="1" fill="none"></path></g><g transform="translate(10 67.65410809827392) rotate(0 98.83355034722217 98.83355034722217)"><path d="M98.83355034722217 0 C110.91154839610911 -1.5196245194489155, 125.24577209949264 2.7497175222980346, 136.97459681739147 7.656079180287051 C148.70342153529032 12.562440838276068, 160.27966352178987 20.38558310805594, 169.20649865461516 29.4381699479341 C178.13333378744045 38.49075678781226, 185.7937854704087 50.175294156322856, 190.53560761434323 61.97160021955602 C195.27742975827778 73.76790628278918, 197.83526693812826 87.5035679874391, 197.65743151822232 100.21600632733308 C197.4795960983164 112.92844466722705, 194.5385362594373 126.58718181702773, 189.46859509490773 138.24623025891987 C184.39865393037815 149.905278700812, 176.41435179571155 161.37096022986077, 167.23778453104475 170.17029697868594 C158.06121726637795 178.9696337275111, 146.270670781006 186.4658959347378, 134.4091915069069 191.0422507518708 C122.54771223280778 195.6186055690038, 108.77761601922914 197.98406192497396, 96.06890888645005 197.62842588148396 C83.36020175367095 197.27278983799397, 69.74393959828107 194.1409631475609, 58.15694871023234 188.90843449093083 C46.56995782218361 183.67590583430075, 35.21708019311741 175.5320060901573, 26.546963558157657 166.23325394170354 C17.876846923197903 156.93450179324978, 10.546240954366453 145.04025319853204, 6.136248900473831 133.11592160020825 C1.726256846581208 121.19159000188446, -0.4463558464369015 107.38975361720911, 0.08701123480192052 94.68726435176079 C0.6203783160407426 81.98477508631247, 3.9423590664391215 68.41365216309073, 9.336451387906763 56.90098600751829 C14.730543709374405 45.38831985194585, 23.03244757978011 34.150467493521035, 32.45156516360777 25.611267418326165 C41.870682747435424 17.072067343131295, 54.787492693603625 9.93433012607009, 65.85115689087269 5.665785556349064 C76.91482108814175 1.397240986628037, 93.33648477116391 0.6148524249007702, 98.83355034722216 0 C104.3306159232804 -0.6148524249007702, 98.83355034722217 0.32944516782407374, 98.83355034722217 1.9766710069444429 M98.83355034722217 0 C110.91154839610911 -1.5196245194489155, 125.24577209949264 2.7497175222980346, 136.97459681739147 7.656079180287051 C148.70342153529032 12.562440838276068, 160.27966352178987 20.38558310805594, 169.20649865461516 29.4381699479341 C178.13333378744045 38.49075678781226, 185.7937854704087 50.175294156322856, 190.53560761434323 61.97160021955602 C195.27742975827778 73.76790628278918, 197.83526693812826 87.5035679874391, 197.65743151822232 100.21600632733308 C197.4795960983164 112.92844466722705, 194.5385362594373 126.58718181702773, 189.46859509490773 138.24623025891987 C184.39865393037815 149.905278700812, 176.41435179571155 161.37096022986077, 167.23778453104475 170.17029697868594 C158.06121726637795 178.9696337275111, 146.270670781006 186.4658959347378, 134.4091915069069 191.0422507518708 C122.54771223280778 195.6186055690038, 108.77761601922914 197.98406192497396, 96.06890888645005 197.62842588148396 C83.36020175367095 197.27278983799397, 69.74393959828107 194.1409631475609, 58.15694871023234 188.90843449093083 C46.56995782218361 183.67590583430075, 35.21708019311741 175.5320060901573, 26.546963558157657 166.23325394170354 C17.876846923197903 156.93450179324978, 10.546240954366453 145.04025319853204, 6.136248900473831 133.11592160020825 C1.726256846581208 121.19159000188446, -0.4463558464369015 107.38975361720911, 0.08701123480192052 94.68726435176079 C0.6203783160407426 81.98477508631247, 3.9423590664391215 68.41365216309073, 9.336451387906763 56.90098600751829 C14.730543709374405 45.38831985194585, 23.03244757978011 34.150467493521035, 32.45156516360777 25.611267418326165 C41.870682747435424 17.072067343131295, 54.787492693603625 9.93433012607009, 65.85115689087269 5.665785556349064 C76.91482108814175 1.397240986628037, 93.33648477116391 0.6148524249007702, 98.83355034722216 0 C104.3306159232804 -0.6148524249007702, 98.83355034722217 0.32944516782407374, 98.83355034722217 1.9766710069444429" stroke="none" stroke-width="0" fill="#ffffff"></path><path d="M98.83355034722217 0 C110.91154839610911 -1.5196245194489155, 125.24577209949264 2.7497175222980346, 136.97459681739147 7.656079180287051 C148.70342153529032 12.562440838276068, 160.27966352178987 20.38558310805594, 169.20649865461516 29.4381699479341 C178.13333378744045 38.49075678781226, 185.7937854704087 50.175294156322856, 190.53560761434323 61.97160021955602 C195.27742975827778 73.76790628278918, 197.83526693812826 87.5035679874391, 197.65743151822232 100.21600632733308 C197.4795960983164 112.92844466722705, 194.5385362594373 126.58718181702773, 189.46859509490773 138.24623025891987 C184.39865393037815 149.905278700812, 176.41435179571155 161.37096022986077, 167.23778453104475 170.17029697868594 C158.06121726637795 178.9696337275111, 146.270670781006 186.4658959347378, 134.4091915069069 191.0422507518708 C122.54771223280778 195.6186055690038, 108.77761601922914 197.98406192497396, 96.06890888645005 197.62842588148396 C83.36020175367095 197.27278983799397, 69.74393959828107 194.1409631475609, 58.15694871023234 188.90843449093083 C46.56995782218361 183.67590583430075, 35.21708019311741 175.5320060901573, 26.546963558157657 166.23325394170354 C17.876846923197903 156.93450179324978, 10.546240954366453 145.04025319853204, 6.136248900473831 133.11592160020825 C1.726256846581208 121.19159000188446, -0.4463558464369015 107.38975361720911, 0.08701123480192052 94.68726435176079 C0.6203783160407426 81.98477508631247, 3.9423590664391215 68.41365216309073, 9.336451387906763 56.90098600751829 C14.730543709374405 45.38831985194585, 23.03244757978011 34.150467493521035, 32.45156516360777 25.611267418326165 C41.870682747435424 17.072067343131295, 54.787492693603625 9.93433012607009, 65.85115689087269 5.665785556349064 C76.91482108814175 1.397240986628037, 93.33648477116391 0.6148524249007702, 98.83355034722216 0 C104.3306159232804 -0.6148524249007702, 98.83355034722217 0.32944516782407374, 98.83355034722217 1.9766710069444429 M98.83355034722217 0 C110.91154839610911 -1.5196245194489155, 125.24577209949264 2.7497175222980346, 136.97459681739147 7.656079180287051 C148.70342153529032 12.562440838276068, 160.27966352178987 20.38558310805594, 169.20649865461516 29.4381699479341 C178.13333378744045 38.49075678781226, 185.7937854704087 50.175294156322856, 190.53560761434323 61.97160021955602 C195.27742975827778 73.76790628278918, 197.83526693812826 87.5035679874391, 197.65743151822232 100.21600632733308 C197.4795960983164 112.92844466722705, 194.5385362594373 126.58718181702773, 189.46859509490773 138.24623025891987 C184.39865393037815 149.905278700812, 176.41435179571155 161.37096022986077, 167.23778453104475 170.17029697868594 C158.06121726637795 178.9696337275111, 146.270670781006 186.4658959347378, 134.4091915069069 191.0422507518708 C122.54771223280778 195.6186055690038, 108.77761601922914 197.98406192497396, 96.06890888645005 197.62842588148396 C83.36020175367095 197.27278983799397, 69.74393959828107 194.1409631475609, 58.15694871023234 188.90843449093083 C46.56995782218361 183.67590583430075, 35.21708019311741 175.5320060901573, 26.546963558157657 166.23325394170354 C17.876846923197903 156.93450179324978, 10.546240954366453 145.04025319853204, 6.136248900473831 133.11592160020825 C1.726256846581208 121.19159000188446, -0.4463558464369015 107.38975361720911, 0.08701123480192052 94.68726435176079 C0.6203783160407426 81.98477508631247, 3.9423590664391215 68.41365216309073, 9.336451387906763 56.90098600751829 C14.730543709374405 45.38831985194585, 23.03244757978011 34.150467493521035, 32.45156516360777 25.611267418326165 C41.870682747435424 17.072067343131295, 54.787492693603625 9.93433012607009, 65.85115689087269 5.665785556349064 C76.91482108814175 1.397240986628037, 93.33648477116391 0.6148524249007702, 98.83355034722216 0 C104.3306159232804 -0.6148524249007702, 98.83355034722217 0.32944516782407374, 98.83355034722217 1.9766710069444429" stroke="#000000" stroke-width="1" fill="none"></path></g></svg>