<svg version="1.1" xmlns="http://www.w3.org/2000/svg" viewBox="0 0 87.72265625 124.91796874999986" width="175.4453125" height="249.83593749999972">
  <!-- svg-source:excalidraw -->
  <g transform="translate(37.140625 101.44921874999986) rotate(0 6.734375 6.734375)"><path d="M6.734375000000002 0 C8.105153056177885 -0.08598050911048964, 9.957803690367527 0.6480506111165879, 11.06314780898279 1.5755444533706324 C12.168491927598055 2.503038295624677, 13.115878541753585 4.1439600457527055, 13.36643971169159 5.564963053524267 C13.617000881629597 6.985966061295829, 13.287976963441297 8.851953426736529, 12.566514828610833 10.101562500000002 C11.845052693780369 11.351171573263475, 10.393572191262075 12.569108327587587, 9.037666902708803 13.062617493105105 C7.681761614155532 13.556126658622622, 5.786988385844473 13.556126658622622, 4.431083097291201 13.062617493105105 C3.075177808737929 12.569108327587587, 1.6236973062196354 11.351171573263475, 0.9022351713891705 10.101562500000002 C0.1807730365587057 8.851953426736529, -0.14825088162959482 6.985966061295827, 0.10231028830841193 5.5649630535242665 C0.3528714582464187 4.1439600457527055, 1.3002580724019461 2.5030382956246777, 2.405602191017211 1.5755444533706333 C3.510946309632476 0.6480506111165889, 6.012912865169536 0.24014282556177222, 6.734375000000001 0 C7.455837134830466 -0.24014282556177222, 6.734375000000002 0.02244791666666668, 6.734375000000002 0.13468750000000007 M6.734375000000002 0 C8.105153056177885 -0.08598050911048964, 9.957803690367527 0.6480506111165879, 11.06314780898279 1.5755444533706324 C12.168491927598055 2.503038295624677, 13.115878541753585 4.1439600457527055, 13.36643971169159 5.564963053524267 C13.617000881629597 6.985966061295829, 13.287976963441297 8.851953426736529, 12.566514828610833 10.101562500000002 C11.845052693780369 11.351171573263475, 10.393572191262075 12.569108327587587, 9.037666902708803 13.062617493105105 C7.681761614155532 13.556126658622622, 5.786988385844473 13.556126658622622, 4.431083097291201 13.062617493105105 C3.075177808737929 12.569108327587587, 1.6236973062196354 11.351171573263475, 0.9022351713891705 10.101562500000002 C0.1807730365587057 8.851953426736529, -0.14825088162959482 6.985966061295827, 0.10231028830841193 5.5649630535242665 C0.3528714582464187 4.1439600457527055, 1.3002580724019461 2.5030382956246777, 2.405602191017211 1.5755444533706333 C3.510946309632476 0.6480506111165889, 6.012912865169536 0.24014282556177222, 6.734375000000001 0 C7.455837134830466 -0.24014282556177222, 6.734375000000002 0.02244791666666668, 6.734375000000002 0.13468750000000007" stroke="#000000" stroke-width="1" fill="none"></path></g><g transform="translate(10 10.000000000000028) rotate(0 33.861328125 33.86132812499997)"><path d="M33.86132812499998 0 C40.57765818477376 -0.43993314104905973, 49.559639755682504 3.037069416301269, 55.07079147165403 7.465339662056355 C60.58194318762556 11.893609907811442, 65.40582141888544 19.665664849660363, 66.92823842082916 26.569621474530514 C68.45065542277288 33.47357809940066, 67.34289969210938 42.55363957773457, 64.20529348331638 48.88907941127726 C61.06768727452338 55.224519244819945, 54.51674698719696 61.608861071588365, 48.102601168071146 64.58226047578663 C41.68845534894533 67.55565987998489, 32.58287605581014 68.42919576680853, 25.7204185685615 66.72947583646683 C18.857961081312858 65.02975590612513, 11.21272069416877 60.00731241396694, 6.927856244579299 54.383940893736394 C2.642991794989829 48.760569373505845, -0.17084780238763683 40.0567227566719, 0.01123187102467682 32.98924671508352 C0.19331154443699047 25.921770673495136, 3.45159597552615 17.374360435577273, 8.020334285053181 11.9790846442061 C12.589072594580212 6.583808852834927, 23.116829421529065 2.614106074224156, 27.423661728186865 0.6175919668564731 C31.730494034844664 -1.3789221405112102, 32.78838372553112 -0.00993909927392167, 33.86132812499997 0 C34.934272524468824 0.00993909927392167, 33.86132812499998 0.11287109375000348, 33.86132812499998 0.6772265625000031 M33.86132812499998 0 C40.57765818477376 -0.43993314104905973, 49.559639755682504 3.037069416301269, 55.07079147165403 7.465339662056355 C60.58194318762556 11.893609907811442, 65.40582141888544 19.665664849660363, 66.92823842082916 26.569621474530514 C68.45065542277288 33.47357809940066, 67.34289969210938 42.55363957773457, 64.20529348331638 48.88907941127726 C61.06768727452338 55.224519244819945, 54.51674698719696 61.608861071588365, 48.102601168071146 64.58226047578663 C41.68845534894533 67.55565987998489, 32.58287605581014 68.42919576680853, 25.7204185685615 66.72947583646683 C18.857961081312858 65.02975590612513, 11.21272069416877 60.00731241396694, 6.927856244579299 54.383940893736394 C2.642991794989829 48.760569373505845, -0.17084780238763683 40.0567227566719, 0.01123187102467682 32.98924671508352 C0.19331154443699047 25.921770673495136, 3.45159597552615 17.374360435577273, 8.020334285053181 11.9790846442061 C12.589072594580212 6.583808852834927, 23.116829421529065 2.614106074224156, 27.423661728186865 0.6175919668564731 C31.730494034844664 -1.3789221405112102, 32.78838372553112 -0.00993909927392167, 33.86132812499997 0 C34.934272524468824 0.00993909927392167, 33.86132812499998 0.11287109375000348, 33.86132812499998 0.6772265625000031" stroke="#000000" stroke-width="1" fill="none"></path></g></svg>