<svg version="1.1" xmlns="http://www.w3.org/2000/svg" viewBox="0 0 331.0859375 554.5613441399286" width="662.171875" height="1109.1226882798571">
  <!-- svg-source:excalidraw -->
  <g transform="translate(152.0080863784906 527.7709795565952) rotate(0 6.734375 6.734375)"><path d="M6.734375000000002 0 C8.105153056177885 -0.08598050911048964, 9.957803690367527 0.6480506111165879, 11.06314780898279 1.5755444533706324 C12.168491927598055 2.503038295624677, 13.115878541753585 4.1439600457527055, 13.36643971169159 5.564963053524267 C13.617000881629597 6.985966061295829, 13.287976963441297 8.851953426736529, 12.566514828610833 10.101562500000002 C11.845052693780369 11.351171573263475, 10.393572191262075 12.569108327587587, 9.037666902708803 13.062617493105105 C7.681761614155532 13.556126658622622, 5.786988385844473 13.556126658622622, 4.431083097291201 13.062617493105105 C3.075177808737929 12.569108327587587, 1.6236973062196354 11.351171573263475, 0.9022351713891705 10.101562500000002 C0.1807730365587057 8.851953426736529, -0.14825088162959482 6.985966061295827, 0.10231028830841193 5.5649630535242665 C0.3528714582464187 4.1439600457527055, 1.3002580724019461 2.5030382956246777, 2.405602191017211 1.5755444533706333 C3.510946309632476 0.6480506111165889, 6.012912865169536 0.24014282556177222, 6.734375000000001 0 C7.455837134830466 -0.24014282556177222, 6.734375000000002 0.02244791666666668, 6.734375000000002 0.13468750000000007 M6.734375000000002 0 C8.105153056177885 -0.08598050911048964, 9.957803690367527 0.6480506111165879, 11.06314780898279 1.5755444533706324 C12.168491927598055 2.503038295624677, 13.115878541753585 4.1439600457527055, 13.36643971169159 5.564963053524267 C13.617000881629597 6.985966061295829, 13.287976963441297 8.851953426736529, 12.566514828610833 10.101562500000002 C11.845052693780369 11.351171573263475, 10.393572191262075 12.569108327587587, 9.037666902708803 13.062617493105105 C7.681761614155532 13.556126658622622, 5.786988385844473 13.556126658622622, 4.431083097291201 13.062617493105105 C3.075177808737929 12.569108327587587, 1.6236973062196354 11.351171573263475, 0.9022351713891705 10.101562500000002 C0.1807730365587057 8.851953426736529, -0.14825088162959482 6.985966061295827, 0.10231028830841193 5.5649630535242665 C0.3528714582464187 4.1439600457527055, 1.3002580724019461 2.5030382956246777, 2.405602191017211 1.5755444533706333 C3.510946309632476 0.6480506111165889, 6.012912865169536 0.24014282556177222, 6.734375000000001 0 C7.455837134830466 -0.24014282556177222, 6.734375000000002 0.02244791666666668, 6.734375000000002 0.13468750000000007" stroke="#000000" stroke-width="1" fill="none"></path></g><g transform="translate(175.53369401737928 527.8356496954841) rotate(0 6.734375 6.734375)"><path d="M6.734375000000002 0 C8.105153056177885 -0.08598050911048964, 9.957803690367527 0.6480506111165879, 11.06314780898279 1.5755444533706324 C12.168491927598055 2.503038295624677, 13.115878541753585 4.1439600457527055, 13.36643971169159 5.564963053524267 C13.617000881629597 6.985966061295829, 13.287976963441297 8.851953426736529, 12.566514828610833 10.101562500000002 C11.845052693780369 11.351171573263475, 10.393572191262075 12.569108327587587, 9.037666902708803 13.062617493105105 C7.681761614155532 13.556126658622622, 5.786988385844473 13.556126658622622, 4.431083097291201 13.062617493105105 C3.075177808737929 12.569108327587587, 1.6236973062196354 11.351171573263475, 0.9022351713891705 10.101562500000002 C0.1807730365587057 8.851953426736529, -0.14825088162959482 6.985966061295827, 0.10231028830841193 5.5649630535242665 C0.3528714582464187 4.1439600457527055, 1.3002580724019461 2.5030382956246777, 2.405602191017211 1.5755444533706333 C3.510946309632476 0.6480506111165889, 6.012912865169536 0.24014282556177222, 6.734375000000001 0 C7.455837134830466 -0.24014282556177222, 6.734375000000002 0.02244791666666668, 6.734375000000002 0.13468750000000007 M6.734375000000002 0 C8.105153056177885 -0.08598050911048964, 9.957803690367527 0.6480506111165879, 11.06314780898279 1.5755444533706324 C12.168491927598055 2.503038295624677, 13.115878541753585 4.1439600457527055, 13.36643971169159 5.564963053524267 C13.617000881629597 6.985966061295829, 13.287976963441297 8.851953426736529, 12.566514828610833 10.101562500000002 C11.845052693780369 11.351171573263475, 10.393572191262075 12.569108327587587, 9.037666902708803 13.062617493105105 C7.681761614155532 13.556126658622622, 5.786988385844473 13.556126658622622, 4.431083097291201 13.062617493105105 C3.075177808737929 12.569108327587587, 1.6236973062196354 11.351171573263475, 0.9022351713891705 10.101562500000002 C0.1807730365587057 8.851953426736529, -0.14825088162959482 6.985966061295827, 0.10231028830841193 5.5649630535242665 C0.3528714582464187 4.1439600457527055, 1.3002580724019461 2.5030382956246777, 2.405602191017211 1.5755444533706333 C3.510946309632476 0.6480506111165889, 6.012912865169536 0.24014282556177222, 6.734375000000001 0 C7.455837134830466 -0.24014282556177222, 6.734375000000002 0.02244791666666668, 6.734375000000002 0.13468750000000007" stroke="#000000" stroke-width="1" fill="none"></path></g><g transform="translate(197.64697526737928 528.0057885843729) rotate(0 6.734375 6.734375)"><path d="M6.734375000000002 0 C8.105153056177885 -0.08598050911048964, 9.957803690367527 0.6480506111165879, 11.06314780898279 1.5755444533706324 C12.168491927598055 2.503038295624677, 13.115878541753585 4.1439600457527055, 13.36643971169159 5.564963053524267 C13.617000881629597 6.985966061295829, 13.287976963441297 8.851953426736529, 12.566514828610833 10.101562500000002 C11.845052693780369 11.351171573263475, 10.393572191262075 12.569108327587587, 9.037666902708803 13.062617493105105 C7.681761614155532 13.556126658622622, 5.786988385844473 13.556126658622622, 4.431083097291201 13.062617493105105 C3.075177808737929 12.569108327587587, 1.6236973062196354 11.351171573263475, 0.9022351713891705 10.101562500000002 C0.1807730365587057 8.851953426736529, -0.14825088162959482 6.985966061295827, 0.10231028830841193 5.5649630535242665 C0.3528714582464187 4.1439600457527055, 1.3002580724019461 2.5030382956246777, 2.405602191017211 1.5755444533706333 C3.510946309632476 0.6480506111165889, 6.012912865169536 0.24014282556177222, 6.734375000000001 0 C7.455837134830466 -0.24014282556177222, 6.734375000000002 0.02244791666666668, 6.734375000000002 0.13468750000000007 M6.734375000000002 0 C8.105153056177885 -0.08598050911048964, 9.957803690367527 0.6480506111165879, 11.06314780898279 1.5755444533706324 C12.168491927598055 2.503038295624677, 13.115878541753585 4.1439600457527055, 13.36643971169159 5.564963053524267 C13.617000881629597 6.985966061295829, 13.287976963441297 8.851953426736529, 12.566514828610833 10.101562500000002 C11.845052693780369 11.351171573263475, 10.393572191262075 12.569108327587587, 9.037666902708803 13.062617493105105 C7.681761614155532 13.556126658622622, 5.786988385844473 13.556126658622622, 4.431083097291201 13.062617493105105 C3.075177808737929 12.569108327587587, 1.6236973062196354 11.351171573263475, 0.9022351713891705 10.101562500000002 C0.1807730365587057 8.851953426736529, -0.14825088162959482 6.985966061295827, 0.10231028830841193 5.5649630535242665 C0.3528714582464187 4.1439600457527055, 1.3002580724019461 2.5030382956246777, 2.405602191017211 1.5755444533706333 C3.510946309632476 0.6480506111165889, 6.012912865169536 0.24014282556177222, 6.734375000000001 0 C7.455837134830466 -0.24014282556177222, 6.734375000000002 0.02244791666666668, 6.734375000000002 0.13468750000000007" stroke="#000000" stroke-width="1" fill="none"></path></g><g transform="translate(121.63525651737928 522.8152503899286) rotate(0 10.873046875 10.873046875)"><path d="M10.873046875000002 0 C13.086249148417135 -0.1388206189727653, 16.077463208896756 1.0463160533892246, 17.86210668579095 2.5438097366340813 C19.64675016268514 4.041303419878938, 21.176361903115485 6.6906686701581535, 21.580907736365162 8.98496209946914 C21.98545356961484 11.279255528780126, 21.4542249870875 14.292002530928727, 20.28938168528901 16.3095703125 C19.124538383490517 18.327138094071273, 16.781037235718088 20.29356904283065, 14.591847925574218 21.090368788896782 C12.402658615430347 21.887168534962914, 9.343435134569656 21.887168534962917, 7.154245824425787 21.090368788896786 C4.965056514281916 20.293569042830654, 2.6215553665094866 18.327138094071273, 1.4567120647109952 16.3095703125 C0.2918687629125041 14.292002530928725, -0.23935981961483693 11.279255528780125, 0.1651860136348393 8.984962099469138 C0.5697318468845156 6.690668670158152, 2.099343587314859 4.04130341987894, 3.8839870642090526 2.543809736634083 C5.668630541103246 1.0463160533892266, 9.708203573201509 0.3877247998556805, 10.873046875 0 C12.037890176798491 -0.3877247998556805, 10.873046875000002 0.03624348958333368, 10.873046875000002 0.21746093750000028 M10.873046875000002 0 C13.086249148417135 -0.1388206189727653, 16.077463208896756 1.0463160533892246, 17.86210668579095 2.5438097366340813 C19.64675016268514 4.041303419878938, 21.176361903115485 6.6906686701581535, 21.580907736365162 8.98496209946914 C21.98545356961484 11.279255528780126, 21.4542249870875 14.292002530928727, 20.28938168528901 16.3095703125 C19.124538383490517 18.327138094071273, 16.781037235718088 20.29356904283065, 14.591847925574218 21.090368788896782 C12.402658615430347 21.887168534962914, 9.343435134569656 21.887168534962917, 7.154245824425787 21.090368788896786 C4.965056514281916 20.293569042830654, 2.6215553665094866 18.327138094071273, 1.4567120647109952 16.3095703125 C0.2918687629125041 14.292002530928725, -0.23935981961483693 11.279255528780125, 0.1651860136348393 8.984962099469138 C0.5697318468845156 6.690668670158152, 2.099343587314859 4.04130341987894, 3.8839870642090526 2.543809736634083 C5.668630541103246 1.0463160533892266, 9.708203573201509 0.3877247998556805, 10.873046875 0 C12.037890176798491 -0.3877247998556805, 10.873046875000002 0.03624348958333368, 10.873046875000002 0.21746093750000028" stroke="#000000" stroke-width="1" fill="none"></path></g><g transform="translate(160.16761363636397 10) rotate(0 6.357954545454504 246.61825284090912)"><path d="M6.3579545454545086 0 C6.949514078762045 -3.928880821168202, 7.630827937224053 3.788623630128953, 8.226037282215149 10.885403570816692 C8.821246627206245 17.98218351150443, 9.414029677860709 29.013604727410062, 9.929210615401082 42.580679644126434 C10.444391552941456 56.147754560842806, 10.927449188060118 73.44814867184198, 11.317122907457389 92.28785307111494 C11.70679662685466 111.1275574703879, 12.037485795928012 133.16969143786295, 12.267252931784705 155.61890603976417 C12.4970200676414 178.0681206416654, 12.646148405381023 202.90617317271503, 12.695725722597555 226.98314068252225 C12.745303039814086 251.06010819232947, 12.699705890956707 276.50144169748836, 12.564716835083892 300.0807110986074 C12.429727779211078 323.6599804997265, 12.193430339469291 347.4587013406025, 11.885791387360666 368.45875708923654 C11.57815243525204 389.4588128378706, 11.172014417682032 409.51403287793755, 10.71888312243214 426.0810455904116 C10.26575182718225 442.6480583028856, 9.725626021881865 457.1893557560603, 9.167003615861324 467.8608333640807 C8.608381209840783 478.5323109721011, 7.98194849445779 486.2760185558713, 7.367148686308893 490.1099112385339 C6.752348878159995 493.94380392119655, 6.094909076112618 494.20632760946967, 5.478204766967938 490.8641894600564 C4.861500457823258 487.5220513106432, 4.231090616137533 480.28021620650185, 3.6669228314408127 470.0570823420546 C3.1027550467440923 459.8339484776074, 2.5550260790301387 445.7270446319202, 2.093198058787616 429.5253862733731 C1.631370038545093 413.323727914826, 1.2146740095208393 393.5970754912555, 0.8959547099856762 372.8471321907722 C0.5772354104505131 352.09718889028886, 0.32835714354273005 328.4922045946805, 0.18088226157663723 305.02572647047333 C0.033407379610544435 281.55924834626614, -0.02568280997425868 256.15971776529545, 0.011105418189119476 232.048263445529 C0.04789364635249763 207.93680912576252, 0.18380785975430255 182.98493564622848, 0.4016116305569062 160.35700055187453 C0.6194154013595098 137.7290654575206, 0.9383358704344473 115.42753448120406, 1.3179280430047413 96.28065287940535 C1.6975202155750353 77.13377127760664, 2.1712934847464447 59.451302979334876, 2.6791646659786696 45.47571094108224 C3.1870358472108946 31.500118902829605, 3.7738384652411856 19.997674820019967, 4.365155130398092 12.427100649889553 C4.956471795554998 4.85652647975914, 5.894931421077372 2.123449361948019, 6.227064656920108 0.05226592029976018 C6.559197892762844 -2.0189175213484987, 6.336139564032107 -0.8133498560864041, 6.357954545454508 0 C6.379769526876908 0.8133498560864041, 6.3579545454545086 0.8220608428030358, 6.3579545454545086 4.932365056818185 M6.3579545454545086 0 C6.949514078762045 -3.928880821168202, 7.630827937224053 3.788623630128953, 8.226037282215149 10.885403570816692 C8.821246627206245 17.98218351150443, 9.414029677860709 29.013604727410062, 9.929210615401082 42.580679644126434 C10.444391552941456 56.147754560842806, 10.927449188060118 73.44814867184198, 11.317122907457389 92.28785307111494 C11.70679662685466 111.1275574703879, 12.037485795928012 133.16969143786295, 12.267252931784705 155.61890603976417 C12.4970200676414 178.0681206416654, 12.646148405381023 202.90617317271503, 12.695725722597555 226.98314068252225 C12.745303039814086 251.06010819232947, 12.699705890956707 276.50144169748836, 12.564716835083892 300.0807110986074 C12.429727779211078 323.6599804997265, 12.193430339469291 347.4587013406025, 11.885791387360666 368.45875708923654 C11.57815243525204 389.4588128378706, 11.172014417682032 409.51403287793755, 10.71888312243214 426.0810455904116 C10.26575182718225 442.6480583028856, 9.725626021881865 457.1893557560603, 9.167003615861324 467.8608333640807 C8.608381209840783 478.5323109721011, 7.98194849445779 486.2760185558713, 7.367148686308893 490.1099112385339 C6.752348878159995 493.94380392119655, 6.094909076112618 494.20632760946967, 5.478204766967938 490.8641894600564 C4.861500457823258 487.5220513106432, 4.231090616137533 480.28021620650185, 3.6669228314408127 470.0570823420546 C3.1027550467440923 459.8339484776074, 2.5550260790301387 445.7270446319202, 2.093198058787616 429.5253862733731 C1.631370038545093 413.323727914826, 1.2146740095208393 393.5970754912555, 0.8959547099856762 372.8471321907722 C0.5772354104505131 352.09718889028886, 0.32835714354273005 328.4922045946805, 0.18088226157663723 305.02572647047333 C0.033407379610544435 281.55924834626614, -0.02568280997425868 256.15971776529545, 0.011105418189119476 232.048263445529 C0.04789364635249763 207.93680912576252, 0.18380785975430255 182.98493564622848, 0.4016116305569062 160.35700055187453 C0.6194154013595098 137.7290654575206, 0.9383358704344473 115.42753448120406, 1.3179280430047413 96.28065287940535 C1.6975202155750353 77.13377127760664, 2.1712934847464447 59.451302979334876, 2.6791646659786696 45.47571094108224 C3.1870358472108946 31.500118902829605, 3.7738384652411856 19.997674820019967, 4.365155130398092 12.427100649889553 C4.956471795554998 4.85652647975914, 5.894931421077372 2.123449361948019, 6.227064656920108 0.05226592029976018 C6.559197892762844 -2.0189175213484987, 6.336139564032107 -0.8133498560864041, 6.357954545454508 0 C6.379769526876908 0.8133498560864041, 6.3579545454545086 0.8220608428030358, 6.3579545454545086 4.932365056818185" stroke="#000000" stroke-width="1" fill="none"></path></g><g transform="translate(10 98.81818181818176) rotate(0 155.54296875 155.54296875)"><path d="M155.54296875 0 C170.84137898155055 -2.464170173116661, 188.54659064359646 2.6910741877962776, 203.8537379022649 7.692758363000394 C219.16088516093333 12.694442538204509, 234.38925239586354 20.50147777560887, 247.38585230201062 30.0101050512247 C260.3824522081577 39.51873232684053, 272.4328421260052 51.669496527820066, 281.8333373391474 64.74452201669536 C291.23383255228964 77.81954750557065, 298.9142820760616 93.11214908125945, 303.7888235808638 108.46025798447644 C308.66336508566593 123.80836688769344, 311.2141633421493 140.7301397290564, 311.08058636796045 156.8331754359973 C310.9470093937716 172.93621114293822, 308.1158444362731 189.8133398330739, 302.9873617357307 205.07847222612196 C297.8588790351883 220.34360461917, 289.92579525374174 235.50668971279518, 280.30969016470607 248.42396979428565 C270.6935850756704 261.34124987577616, 258.4432826350541 273.2904363733331, 245.29073120151685 282.5821527150648 C232.1381797679796 291.87386905679654, 216.7823960717761 299.42720440718176, 201.39438156348257 304.17426784467614 C186.00636705518903 308.9213312821705, 169.06401786537361 311.3316780975332, 152.96264415175568 311.06453334003095 C136.86127043813775 310.7973885825287, 120.00820647899877 307.8263276560011, 104.78613928177492 302.57139929966274 C89.56407208455107 297.31647094332436, 74.46731244098494 289.25788446030134, 61.63024096841259 279.53496320200054 C48.79316949584025 269.81204194369974, 36.94600859234661 257.4630441557536, 27.763710446340866 244.23387174985808 C18.581412300335124 231.00469934396256, 11.15571083689387 215.58679009478698, 6.536452092378141 200.15992876662747 C1.9171933478624128 184.73306743846797, -0.3525361804506275 167.77130763270867, 0.04815797924649701 151.67270378090114 C0.4488521389436215 135.57409992909362, 3.559604608167871 118.74626029011489, 8.940617050560888 103.56830565578227 C14.321629492953907 88.39035102144965, 22.505164199769254 73.36095557311849, 32.3342326336046 60.60497597490537 C42.163301067439946 47.848996376692256, 54.61014451959303 36.10467622107822, 67.91502765357298 27.03242806650357 C81.21991078755292 17.96017991192892, 97.55887458807979 10.676891725208069, 112.1635314374843 6.171487047457475 C126.7681882868888 1.6660823697068805, 148.31306253124734 0.5101046120762476, 155.54296874999997 0 C162.7728749687526 -0.5101046120762476, 155.54296875 0.518476562499989, 155.54296875 3.1108593749999898 M155.54296875 0 C170.84137898155055 -2.464170173116661, 188.54659064359646 2.6910741877962776, 203.8537379022649 7.692758363000394 C219.16088516093333 12.694442538204509, 234.38925239586354 20.50147777560887, 247.38585230201062 30.0101050512247 C260.3824522081577 39.51873232684053, 272.4328421260052 51.669496527820066, 281.8333373391474 64.74452201669536 C291.23383255228964 77.81954750557065, 298.9142820760616 93.11214908125945, 303.7888235808638 108.46025798447644 C308.66336508566593 123.80836688769344, 311.2141633421493 140.7301397290564, 311.08058636796045 156.8331754359973 C310.9470093937716 172.93621114293822, 308.1158444362731 189.8133398330739, 302.9873617357307 205.07847222612196 C297.8588790351883 220.34360461917, 289.92579525374174 235.50668971279518, 280.30969016470607 248.42396979428565 C270.6935850756704 261.34124987577616, 258.4432826350541 273.2904363733331, 245.29073120151685 282.5821527150648 C232.1381797679796 291.87386905679654, 216.7823960717761 299.42720440718176, 201.39438156348257 304.17426784467614 C186.00636705518903 308.9213312821705, 169.06401786537361 311.3316780975332, 152.96264415175568 311.06453334003095 C136.86127043813775 310.7973885825287, 120.00820647899877 307.8263276560011, 104.78613928177492 302.57139929966274 C89.56407208455107 297.31647094332436, 74.46731244098494 289.25788446030134, 61.63024096841259 279.53496320200054 C48.79316949584025 269.81204194369974, 36.94600859234661 257.4630441557536, 27.763710446340866 244.23387174985808 C18.581412300335124 231.00469934396256, 11.15571083689387 215.58679009478698, 6.536452092378141 200.15992876662747 C1.9171933478624128 184.73306743846797, -0.3525361804506275 167.77130763270867, 0.04815797924649701 151.67270378090114 C0.4488521389436215 135.57409992909362, 3.559604608167871 118.74626029011489, 8.940617050560888 103.56830565578227 C14.321629492953907 88.39035102144965, 22.505164199769254 73.36095557311849, 32.3342326336046 60.60497597490537 C42.163301067439946 47.848996376692256, 54.61014451959303 36.10467622107822, 67.91502765357298 27.03242806650357 C81.21991078755292 17.96017991192892, 97.55887458807979 10.676891725208069, 112.1635314374843 6.171487047457475 C126.7681882868888 1.6660823697068805, 148.31306253124734 0.5101046120762476, 155.54296874999997 0 C162.7728749687526 -0.5101046120762476, 155.54296875 0.518476562499989, 155.54296875 3.1108593749999898" stroke="none" stroke-width="0" fill="#ffffff"></path><path d="M155.54296875 0 C170.84137898155055 -2.464170173116661, 188.54659064359646 2.6910741877962776, 203.8537379022649 7.692758363000394 C219.16088516093333 12.694442538204509, 234.38925239586354 20.50147777560887, 247.38585230201062 30.0101050512247 C260.3824522081577 39.51873232684053, 272.4328421260052 51.669496527820066, 281.8333373391474 64.74452201669536 C291.23383255228964 77.81954750557065, 298.9142820760616 93.11214908125945, 303.7888235808638 108.46025798447644 C308.66336508566593 123.80836688769344, 311.2141633421493 140.7301397290564, 311.08058636796045 156.8331754359973 C310.9470093937716 172.93621114293822, 308.1158444362731 189.8133398330739, 302.9873617357307 205.07847222612196 C297.8588790351883 220.34360461917, 289.92579525374174 235.50668971279518, 280.30969016470607 248.42396979428565 C270.6935850756704 261.34124987577616, 258.4432826350541 273.2904363733331, 245.29073120151685 282.5821527150648 C232.1381797679796 291.87386905679654, 216.7823960717761 299.42720440718176, 201.39438156348257 304.17426784467614 C186.00636705518903 308.9213312821705, 169.06401786537361 311.3316780975332, 152.96264415175568 311.06453334003095 C136.86127043813775 310.7973885825287, 120.00820647899877 307.8263276560011, 104.78613928177492 302.57139929966274 C89.56407208455107 297.31647094332436, 74.46731244098494 289.25788446030134, 61.63024096841259 279.53496320200054 C48.79316949584025 269.81204194369974, 36.94600859234661 257.4630441557536, 27.763710446340866 244.23387174985808 C18.581412300335124 231.00469934396256, 11.15571083689387 215.58679009478698, 6.536452092378141 200.15992876662747 C1.9171933478624128 184.73306743846797, -0.3525361804506275 167.77130763270867, 0.04815797924649701 151.67270378090114 C0.4488521389436215 135.57409992909362, 3.559604608167871 118.74626029011489, 8.940617050560888 103.56830565578227 C14.321629492953907 88.39035102144965, 22.505164199769254 73.36095557311849, 32.3342326336046 60.60497597490537 C42.163301067439946 47.848996376692256, 54.61014451959303 36.10467622107822, 67.91502765357298 27.03242806650357 C81.21991078755292 17.96017991192892, 97.55887458807979 10.676891725208069, 112.1635314374843 6.171487047457475 C126.7681882868888 1.6660823697068805, 148.31306253124734 0.5101046120762476, 155.54296874999997 0 C162.7728749687526 -0.5101046120762476, 155.54296875 0.518476562499989, 155.54296875 3.1108593749999898 M155.54296875 0 C170.84137898155055 -2.464170173116661, 188.54659064359646 2.6910741877962776, 203.8537379022649 7.692758363000394 C219.16088516093333 12.694442538204509, 234.38925239586354 20.50147777560887, 247.38585230201062 30.0101050512247 C260.3824522081577 39.51873232684053, 272.4328421260052 51.669496527820066, 281.8333373391474 64.74452201669536 C291.23383255228964 77.81954750557065, 298.9142820760616 93.11214908125945, 303.7888235808638 108.46025798447644 C308.66336508566593 123.80836688769344, 311.2141633421493 140.7301397290564, 311.08058636796045 156.8331754359973 C310.9470093937716 172.93621114293822, 308.1158444362731 189.8133398330739, 302.9873617357307 205.07847222612196 C297.8588790351883 220.34360461917, 289.92579525374174 235.50668971279518, 280.30969016470607 248.42396979428565 C270.6935850756704 261.34124987577616, 258.4432826350541 273.2904363733331, 245.29073120151685 282.5821527150648 C232.1381797679796 291.87386905679654, 216.7823960717761 299.42720440718176, 201.39438156348257 304.17426784467614 C186.00636705518903 308.9213312821705, 169.06401786537361 311.3316780975332, 152.96264415175568 311.06453334003095 C136.86127043813775 310.7973885825287, 120.00820647899877 307.8263276560011, 104.78613928177492 302.57139929966274 C89.56407208455107 297.31647094332436, 74.46731244098494 289.25788446030134, 61.63024096841259 279.53496320200054 C48.79316949584025 269.81204194369974, 36.94600859234661 257.4630441557536, 27.763710446340866 244.23387174985808 C18.581412300335124 231.00469934396256, 11.15571083689387 215.58679009478698, 6.536452092378141 200.15992876662747 C1.9171933478624128 184.73306743846797, -0.3525361804506275 167.77130763270867, 0.04815797924649701 151.67270378090114 C0.4488521389436215 135.57409992909362, 3.559604608167871 118.74626029011489, 8.940617050560888 103.56830565578227 C14.321629492953907 88.39035102144965, 22.505164199769254 73.36095557311849, 32.3342326336046 60.60497597490537 C42.163301067439946 47.848996376692256, 54.61014451959303 36.10467622107822, 67.91502765357298 27.03242806650357 C81.21991078755292 17.96017991192892, 97.55887458807979 10.676891725208069, 112.1635314374843 6.171487047457475 C126.7681882868888 1.6660823697068805, 148.31306253124734 0.5101046120762476, 155.54296874999997 0 C162.7728749687526 -0.5101046120762476, 155.54296875 0.518476562499989, 155.54296875 3.1108593749999898" stroke="#000000" stroke-width="1" fill="none"></path></g></svg>