<svg version="1.1" xmlns="http://www.w3.org/2000/svg" viewBox="0 0 41.74609375 41.74609375" width="83.4921875" height="83.4921875">
  <!-- svg-source:excalidraw -->
  <g transform="translate(10 10) rotate(0 10.873046875 10.873046875)"><path d="M10.873046875000002 0 C13.086249148417135 -0.1388206189727653, 16.077463208896756 1.0463160533892246, 17.86210668579095 2.5438097366340813 C19.64675016268514 4.041303419878938, 21.176361903115485 6.6906686701581535, 21.580907736365162 8.98496209946914 C21.98545356961484 11.279255528780126, 21.4542249870875 14.292002530928727, 20.28938168528901 16.3095703125 C19.124538383490517 18.327138094071273, 16.781037235718088 20.29356904283065, 14.591847925574218 21.090368788896782 C12.402658615430347 21.887168534962914, 9.343435134569656 21.887168534962917, 7.154245824425787 21.090368788896786 C4.965056514281916 20.293569042830654, 2.6215553665094866 18.327138094071273, 1.4567120647109952 16.3095703125 C0.2918687629125041 14.292002530928725, -0.23935981961483693 11.279255528780125, 0.1651860136348393 8.984962099469138 C0.5697318468845156 6.690668670158152, 2.099343587314859 4.04130341987894, 3.8839870642090526 2.543809736634083 C5.668630541103246 1.0463160533892266, 9.708203573201509 0.3877247998556805, 10.873046875 0 C12.037890176798491 -0.3877247998556805, 10.873046875000002 0.03624348958333368, 10.873046875000002 0.21746093750000028 M10.873046875000002 0 C13.086249148417135 -0.1388206189727653, 16.077463208896756 1.0463160533892246, 17.86210668579095 2.5438097366340813 C19.64675016268514 4.041303419878938, 21.176361903115485 6.6906686701581535, 21.580907736365162 8.98496209946914 C21.98545356961484 11.279255528780126, 21.4542249870875 14.292002530928727, 20.28938168528901 16.3095703125 C19.124538383490517 18.327138094071273, 16.781037235718088 20.29356904283065, 14.591847925574218 21.090368788896782 C12.402658615430347 21.887168534962914, 9.343435134569656 21.887168534962917, 7.154245824425787 21.090368788896786 C4.965056514281916 20.293569042830654, 2.6215553665094866 18.327138094071273, 1.4567120647109952 16.3095703125 C0.2918687629125041 14.292002530928725, -0.23935981961483693 11.279255528780125, 0.1651860136348393 8.984962099469138 C0.5697318468845156 6.690668670158152, 2.099343587314859 4.04130341987894, 3.8839870642090526 2.543809736634083 C5.668630541103246 1.0463160533892266, 9.708203573201509 0.3877247998556805, 10.873046875 0 C12.037890176798491 -0.3877247998556805, 10.873046875000002 0.03624348958333368, 10.873046875000002 0.21746093750000028" stroke="#000000" stroke-width="1" fill="none"></path></g></svg>