<svg version="1.1" xmlns="http://www.w3.org/2000/svg" viewBox="0 0 434.09134767674914 348.6276041666665" width="868.1826953534983" height="697.255208333333">
  <!-- svg-source:excalidraw -->
  <g transform="translate(270.3547548235447 326.6895461309522) rotate(0 2.326171875 2.326171875)"><path d="M2.326171875 0 C2.7996627870962465 -0.029699183976390042, 3.4396009846948146 0.22384810842223218, 3.8214063342513054 0.5442208364165961 C4.203211683807796 0.8645935644109601, 4.530455725994349 1.431396871952283, 4.617003972338945 1.9222363679661836 C4.703552218683541 2.413075863980084, 4.5899015555274305 3.057620803724827, 4.34069581231888 3.4892578125 C4.091490069110329 3.920894821275173, 3.5901231089887267 4.341591652597684, 3.12176951308764 4.512058420617221 C2.6534159171865532 4.682525188636758, 1.9989278328134472 4.682525188636758, 1.5305742369123605 4.512058420617221 C1.0622206410112738 4.341591652597684, 0.560853680889671 3.920894821275173, 0.3116479376811201 3.4892578125 C0.062442194472569185 3.057620803724827, -0.051208468683540606 2.4130758639800836, 0.035339777661055116 1.9222363679661831 C0.12188802400565084 1.4313968719522825, 0.44913206619220364 0.8645935644109601, 0.8309374157486944 0.5442208364165964 C1.2127427653051852 0.22384810842223252, 2.0769661317914485 0.08294956648609941, 2.3261718749999996 0 C2.5753776182085506 -0.08294956648609941, 2.326171875 0.007753906249999908, 2.326171875 0.046523437499999876 M2.326171875 0 C2.7996627870962465 -0.029699183976390042, 3.4396009846948146 0.22384810842223218, 3.8214063342513054 0.5442208364165961 C4.203211683807796 0.8645935644109601, 4.530455725994349 1.431396871952283, 4.617003972338945 1.9222363679661836 C4.703552218683541 2.413075863980084, 4.5899015555274305 3.057620803724827, 4.34069581231888 3.4892578125 C4.091490069110329 3.920894821275173, 3.5901231089887267 4.341591652597684, 3.12176951308764 4.512058420617221 C2.6534159171865532 4.682525188636758, 1.9989278328134472 4.682525188636758, 1.5305742369123605 4.512058420617221 C1.0622206410112738 4.341591652597684, 0.560853680889671 3.920894821275173, 0.3116479376811201 3.4892578125 C0.062442194472569185 3.057620803724827, -0.051208468683540606 2.4130758639800836, 0.035339777661055116 1.9222363679661831 C0.12188802400565084 1.4313968719522825, 0.44913206619220364 0.8645935644109601, 0.8309374157486944 0.5442208364165964 C1.2127427653051852 0.22384810842223252, 2.0769661317914485 0.08294956648609941, 2.3261718749999996 0 C2.5753776182085506 -0.08294956648609941, 2.326171875 0.007753906249999908, 2.326171875 0.046523437499999876" stroke="#000000" stroke-width="1" fill="none"></path></g><g transform="translate(280.694691579497 326.66164434523796) rotate(0 2.326171875 2.326171875)"><path d="M2.326171875 0 C2.7996627870962465 -0.029699183976390042, 3.4396009846948146 0.22384810842223218, 3.8214063342513054 0.5442208364165961 C4.203211683807796 0.8645935644109601, 4.530455725994349 1.431396871952283, 4.617003972338945 1.9222363679661836 C4.703552218683541 2.413075863980084, 4.5899015555274305 3.057620803724827, 4.34069581231888 3.4892578125 C4.091490069110329 3.920894821275173, 3.5901231089887267 4.341591652597684, 3.12176951308764 4.512058420617221 C2.6534159171865532 4.682525188636758, 1.9989278328134472 4.682525188636758, 1.5305742369123605 4.512058420617221 C1.0622206410112738 4.341591652597684, 0.560853680889671 3.920894821275173, 0.3116479376811201 3.4892578125 C0.062442194472569185 3.057620803724827, -0.051208468683540606 2.4130758639800836, 0.035339777661055116 1.9222363679661831 C0.12188802400565084 1.4313968719522825, 0.44913206619220364 0.8645935644109601, 0.8309374157486944 0.5442208364165964 C1.2127427653051852 0.22384810842223252, 2.0769661317914485 0.08294956648609941, 2.3261718749999996 0 C2.5753776182085506 -0.08294956648609941, 2.326171875 0.007753906249999908, 2.326171875 0.046523437499999876 M2.326171875 0 C2.7996627870962465 -0.029699183976390042, 3.4396009846948146 0.22384810842223218, 3.8214063342513054 0.5442208364165961 C4.203211683807796 0.8645935644109601, 4.530455725994349 1.431396871952283, 4.617003972338945 1.9222363679661836 C4.703552218683541 2.413075863980084, 4.5899015555274305 3.057620803724827, 4.34069581231888 3.4892578125 C4.091490069110329 3.920894821275173, 3.5901231089887267 4.341591652597684, 3.12176951308764 4.512058420617221 C2.6534159171865532 4.682525188636758, 1.9989278328134472 4.682525188636758, 1.5305742369123605 4.512058420617221 C1.0622206410112738 4.341591652597684, 0.560853680889671 3.920894821275173, 0.3116479376811201 3.4892578125 C0.062442194472569185 3.057620803724827, -0.051208468683540606 2.4130758639800836, 0.035339777661055116 1.9222363679661831 C0.12188802400565084 1.4313968719522825, 0.44913206619220364 0.8645935644109601, 0.8309374157486944 0.5442208364165964 C1.2127427653051852 0.22384810842223252, 2.0769661317914485 0.08294956648609941, 2.3261718749999996 0 C2.5753776182085506 -0.08294956648609941, 2.326171875 0.007753906249999908, 2.326171875 0.046523437499999876" stroke="#000000" stroke-width="1" fill="none"></path></g><g transform="translate(290.27755988306853 326.79836309523796) rotate(0 2.326171875 2.326171875)"><path d="M2.326171875 0 C2.7996627870962465 -0.029699183976390042, 3.4396009846948146 0.22384810842223218, 3.8214063342513054 0.5442208364165961 C4.203211683807796 0.8645935644109601, 4.530455725994349 1.431396871952283, 4.617003972338945 1.9222363679661836 C4.703552218683541 2.413075863980084, 4.5899015555274305 3.057620803724827, 4.34069581231888 3.4892578125 C4.091490069110329 3.920894821275173, 3.5901231089887267 4.341591652597684, 3.12176951308764 4.512058420617221 C2.6534159171865532 4.682525188636758, 1.9989278328134472 4.682525188636758, 1.5305742369123605 4.512058420617221 C1.0622206410112738 4.341591652597684, 0.560853680889671 3.920894821275173, 0.3116479376811201 3.4892578125 C0.062442194472569185 3.057620803724827, -0.051208468683540606 2.4130758639800836, 0.035339777661055116 1.9222363679661831 C0.12188802400565084 1.4313968719522825, 0.44913206619220364 0.8645935644109601, 0.8309374157486944 0.5442208364165964 C1.2127427653051852 0.22384810842223252, 2.0769661317914485 0.08294956648609941, 2.3261718749999996 0 C2.5753776182085506 -0.08294956648609941, 2.326171875 0.007753906249999908, 2.326171875 0.046523437499999876 M2.326171875 0 C2.7996627870962465 -0.029699183976390042, 3.4396009846948146 0.22384810842223218, 3.8214063342513054 0.5442208364165961 C4.203211683807796 0.8645935644109601, 4.530455725994349 1.431396871952283, 4.617003972338945 1.9222363679661836 C4.703552218683541 2.413075863980084, 4.5899015555274305 3.057620803724827, 4.34069581231888 3.4892578125 C4.091490069110329 3.920894821275173, 3.5901231089887267 4.341591652597684, 3.12176951308764 4.512058420617221 C2.6534159171865532 4.682525188636758, 1.9989278328134472 4.682525188636758, 1.5305742369123605 4.512058420617221 C1.0622206410112738 4.341591652597684, 0.560853680889671 3.920894821275173, 0.3116479376811201 3.4892578125 C0.062442194472569185 3.057620803724827, -0.051208468683540606 2.4130758639800836, 0.035339777661055116 1.9222363679661831 C0.12188802400565084 1.4313968719522825, 0.44913206619220364 0.8645935644109601, 0.8309374157486944 0.5442208364165964 C1.2127427653051852 0.22384810842223252, 2.0769661317914485 0.08294956648609941, 2.3261718749999996 0 C2.5753776182085506 -0.08294956648609941, 2.326171875 0.007753906249999908, 2.326171875 0.046523437499999876" stroke="#000000" stroke-width="1" fill="none"></path></g><g transform="translate(224.89949068663918 324.51702008928555) rotate(0 3.66015625 3.66015625)"><path d="M3.6601562500000027 0 C4.405178894221973 -0.046730705937661675, 5.412100961644069 0.3522177625384243, 6.012859337016751 0.8563138937403036 C6.613617712389433 1.3604100249421829, 7.128525634352154 2.2522567070013264, 7.264706502236094 3.0245767872112763 C7.400887370120034 3.7968968674212262, 7.222061725489849 4.811067494693812, 6.829944544320391 5.4902343750000036 C6.437827363150933 6.169401255306195, 5.648942658475967 6.8313541200403565, 4.9120034152193455 7.099578069048427 C4.175064171962724 7.367802018056497, 3.1452483280372814 7.367802018056497, 2.4083090847806594 7.099578069048427 C1.6713698415240374 6.8313541200403565, 0.8824851368490714 6.169401255306195, 0.4903679556796132 5.4902343750000036 C0.09825077451015507 4.811067494693812, -0.08057487012002942 3.796896867421226, 0.05560599776391051 3.024576787211276 C0.19178686564785044 2.252256707001326, 0.706694787610571 1.3604100249421833, 1.3074531629832529 0.8563138937403041 C1.9082115383559346 0.35221776253842474, 3.268039068830543 0.13051846145671733, 3.6601562500000013 0 C4.05227343116946 -0.13051846145671733, 3.660156250000002 0.01220052083333334, 3.660156250000002 0.07320312500000004 M3.6601562500000027 0 C4.405178894221973 -0.046730705937661675, 5.412100961644069 0.3522177625384243, 6.012859337016751 0.8563138937403036 C6.613617712389433 1.3604100249421829, 7.128525634352154 2.2522567070013264, 7.264706502236094 3.0245767872112763 C7.400887370120034 3.7968968674212262, 7.222061725489849 4.811067494693812, 6.829944544320391 5.4902343750000036 C6.437827363150933 6.169401255306195, 5.648942658475967 6.8313541200403565, 4.9120034152193455 7.099578069048427 C4.175064171962724 7.367802018056497, 3.1452483280372814 7.367802018056497, 2.4083090847806594 7.099578069048427 C1.6713698415240374 6.8313541200403565, 0.8824851368490714 6.169401255306195, 0.4903679556796132 5.4902343750000036 C0.09825077451015507 4.811067494693812, -0.08057487012002942 3.796896867421226, 0.05560599776391051 3.024576787211276 C0.19178686564785044 2.252256707001326, 0.706694787610571 1.3604100249421833, 1.3074531629832529 0.8563138937403041 C1.9082115383559346 0.35221776253842474, 3.268039068830543 0.13051846145671733, 3.6601562500000013 0 C4.05227343116946 -0.13051846145671733, 3.660156250000002 0.01220052083333334, 3.660156250000002 0.07320312500000004" stroke="#000000" stroke-width="1" fill="none"></path></g><g transform="translate(240.32917818663918 324.6705729166665) rotate(0 3.66015625 3.66015625)"><path d="M3.6601562500000027 0 C4.405178894221973 -0.046730705937661675, 5.412100961644069 0.3522177625384243, 6.012859337016751 0.8563138937403036 C6.613617712389433 1.3604100249421829, 7.128525634352154 2.2522567070013264, 7.264706502236094 3.0245767872112763 C7.400887370120034 3.7968968674212262, 7.222061725489849 4.811067494693812, 6.829944544320391 5.4902343750000036 C6.437827363150933 6.169401255306195, 5.648942658475967 6.8313541200403565, 4.9120034152193455 7.099578069048427 C4.175064171962724 7.367802018056497, 3.1452483280372814 7.367802018056497, 2.4083090847806594 7.099578069048427 C1.6713698415240374 6.8313541200403565, 0.8824851368490714 6.169401255306195, 0.4903679556796132 5.4902343750000036 C0.09825077451015507 4.811067494693812, -0.08057487012002942 3.796896867421226, 0.05560599776391051 3.024576787211276 C0.19178686564785044 2.252256707001326, 0.706694787610571 1.3604100249421833, 1.3074531629832529 0.8563138937403041 C1.9082115383559346 0.35221776253842474, 3.268039068830543 0.13051846145671733, 3.6601562500000013 0 C4.05227343116946 -0.13051846145671733, 3.660156250000002 0.01220052083333334, 3.660156250000002 0.07320312500000004 M3.6601562500000027 0 C4.405178894221973 -0.046730705937661675, 5.412100961644069 0.3522177625384243, 6.012859337016751 0.8563138937403036 C6.613617712389433 1.3604100249421829, 7.128525634352154 2.2522567070013264, 7.264706502236094 3.0245767872112763 C7.400887370120034 3.7968968674212262, 7.222061725489849 4.811067494693812, 6.829944544320391 5.4902343750000036 C6.437827363150933 6.169401255306195, 5.648942658475967 6.8313541200403565, 4.9120034152193455 7.099578069048427 C4.175064171962724 7.367802018056497, 3.1452483280372814 7.367802018056497, 2.4083090847806594 7.099578069048427 C1.6713698415240374 6.8313541200403565, 0.8824851368490714 6.169401255306195, 0.4903679556796132 5.4902343750000036 C0.09825077451015507 4.811067494693812, -0.08057487012002942 3.796896867421226, 0.05560599776391051 3.024576787211276 C0.19178686564785044 2.252256707001326, 0.706694787610571 1.3604100249421833, 1.3074531629832529 0.8563138937403041 C1.9082115383559346 0.35221776253842474, 3.268039068830543 0.13051846145671733, 3.6601562500000013 0 C4.05227343116946 -0.13051846145671733, 3.660156250000002 0.01220052083333334, 3.660156250000002 0.07320312500000004" stroke="#000000" stroke-width="1" fill="none"></path></g><g transform="translate(255.1023366687823 324.7411644345236) rotate(0 3.66015625 3.66015625)"><path d="M3.6601562500000027 0 C4.405178894221973 -0.046730705937661675, 5.412100961644069 0.3522177625384243, 6.012859337016751 0.8563138937403036 C6.613617712389433 1.3604100249421829, 7.128525634352154 2.2522567070013264, 7.264706502236094 3.0245767872112763 C7.400887370120034 3.7968968674212262, 7.222061725489849 4.811067494693812, 6.829944544320391 5.4902343750000036 C6.437827363150933 6.169401255306195, 5.648942658475967 6.8313541200403565, 4.9120034152193455 7.099578069048427 C4.175064171962724 7.367802018056497, 3.1452483280372814 7.367802018056497, 2.4083090847806594 7.099578069048427 C1.6713698415240374 6.8313541200403565, 0.8824851368490714 6.169401255306195, 0.4903679556796132 5.4902343750000036 C0.09825077451015507 4.811067494693812, -0.08057487012002942 3.796896867421226, 0.05560599776391051 3.024576787211276 C0.19178686564785044 2.252256707001326, 0.706694787610571 1.3604100249421833, 1.3074531629832529 0.8563138937403041 C1.9082115383559346 0.35221776253842474, 3.268039068830543 0.13051846145671733, 3.6601562500000013 0 C4.05227343116946 -0.13051846145671733, 3.660156250000002 0.01220052083333334, 3.660156250000002 0.07320312500000004 M3.6601562500000027 0 C4.405178894221973 -0.046730705937661675, 5.412100961644069 0.3522177625384243, 6.012859337016751 0.8563138937403036 C6.613617712389433 1.3604100249421829, 7.128525634352154 2.2522567070013264, 7.264706502236094 3.0245767872112763 C7.400887370120034 3.7968968674212262, 7.222061725489849 4.811067494693812, 6.829944544320391 5.4902343750000036 C6.437827363150933 6.169401255306195, 5.648942658475967 6.8313541200403565, 4.9120034152193455 7.099578069048427 C4.175064171962724 7.367802018056497, 3.1452483280372814 7.367802018056497, 2.4083090847806594 7.099578069048427 C1.6713698415240374 6.8313541200403565, 0.8824851368490714 6.169401255306195, 0.4903679556796132 5.4902343750000036 C0.09825077451015507 4.811067494693812, -0.08057487012002942 3.796896867421226, 0.05560599776391051 3.024576787211276 C0.19178686564785044 2.252256707001326, 0.706694787610571 1.3604100249421833, 1.3074531629832529 0.8563138937403041 C1.9082115383559346 0.35221776253842474, 3.268039068830543 0.13051846145671733, 3.6601562500000013 0 C4.05227343116946 -0.13051846145671733, 3.660156250000002 0.01220052083333334, 3.660156250000002 0.07320312500000004" stroke="#000000" stroke-width="1" fill="none"></path></g><g transform="translate(178.57527193663918 321.6153273809522) rotate(0 6.734375 6.734375)"><path d="M6.734375000000002 0 C8.105153056177885 -0.08598050911048964, 9.957803690367527 0.6480506111165879, 11.06314780898279 1.5755444533706324 C12.168491927598055 2.503038295624677, 13.115878541753585 4.1439600457527055, 13.36643971169159 5.564963053524267 C13.617000881629597 6.985966061295829, 13.287976963441297 8.851953426736529, 12.566514828610833 10.101562500000002 C11.845052693780369 11.351171573263475, 10.393572191262075 12.569108327587587, 9.037666902708803 13.062617493105105 C7.681761614155532 13.556126658622622, 5.786988385844473 13.556126658622622, 4.431083097291201 13.062617493105105 C3.075177808737929 12.569108327587587, 1.6236973062196354 11.351171573263475, 0.9022351713891705 10.101562500000002 C0.1807730365587057 8.851953426736529, -0.14825088162959482 6.985966061295827, 0.10231028830841193 5.5649630535242665 C0.3528714582464187 4.1439600457527055, 1.3002580724019461 2.5030382956246777, 2.405602191017211 1.5755444533706333 C3.510946309632476 0.6480506111165889, 6.012912865169536 0.24014282556177222, 6.734375000000001 0 C7.455837134830466 -0.24014282556177222, 6.734375000000002 0.02244791666666668, 6.734375000000002 0.13468750000000007 M6.734375000000002 0 C8.105153056177885 -0.08598050911048964, 9.957803690367527 0.6480506111165879, 11.06314780898279 1.5755444533706324 C12.168491927598055 2.503038295624677, 13.115878541753585 4.1439600457527055, 13.36643971169159 5.564963053524267 C13.617000881629597 6.985966061295829, 13.287976963441297 8.851953426736529, 12.566514828610833 10.101562500000002 C11.845052693780369 11.351171573263475, 10.393572191262075 12.569108327587587, 9.037666902708803 13.062617493105105 C7.681761614155532 13.556126658622622, 5.786988385844473 13.556126658622622, 4.431083097291201 13.062617493105105 C3.075177808737929 12.569108327587587, 1.6236973062196354 11.351171573263475, 0.9022351713891705 10.101562500000002 C0.1807730365587057 8.851953426736529, -0.14825088162959482 6.985966061295827, 0.10231028830841193 5.5649630535242665 C0.3528714582464187 4.1439600457527055, 1.3002580724019461 2.5030382956246777, 2.405602191017211 1.5755444533706333 C3.510946309632476 0.6480506111165889, 6.012912865169536 0.24014282556177222, 6.734375000000001 0 C7.455837134830466 -0.24014282556177222, 6.734375000000002 0.02244791666666668, 6.734375000000002 0.13468750000000007" stroke="#000000" stroke-width="1" fill="none"></path></g><g transform="translate(201.85261568663918 321.7955729166665) rotate(0 6.734375 6.734375)"><path d="M6.734375000000002 0 C8.105153056177885 -0.08598050911048964, 9.957803690367527 0.6480506111165879, 11.06314780898279 1.5755444533706324 C12.168491927598055 2.503038295624677, 13.115878541753585 4.1439600457527055, 13.36643971169159 5.564963053524267 C13.617000881629597 6.985966061295829, 13.287976963441297 8.851953426736529, 12.566514828610833 10.101562500000002 C11.845052693780369 11.351171573263475, 10.393572191262075 12.569108327587587, 9.037666902708803 13.062617493105105 C7.681761614155532 13.556126658622622, 5.786988385844473 13.556126658622622, 4.431083097291201 13.062617493105105 C3.075177808737929 12.569108327587587, 1.6236973062196354 11.351171573263475, 0.9022351713891705 10.101562500000002 C0.1807730365587057 8.851953426736529, -0.14825088162959482 6.985966061295827, 0.10231028830841193 5.5649630535242665 C0.3528714582464187 4.1439600457527055, 1.3002580724019461 2.5030382956246777, 2.405602191017211 1.5755444533706333 C3.510946309632476 0.6480506111165889, 6.012912865169536 0.24014282556177222, 6.734375000000001 0 C7.455837134830466 -0.24014282556177222, 6.734375000000002 0.02244791666666668, 6.734375000000002 0.13468750000000007 M6.734375000000002 0 C8.105153056177885 -0.08598050911048964, 9.957803690367527 0.6480506111165879, 11.06314780898279 1.5755444533706324 C12.168491927598055 2.503038295624677, 13.115878541753585 4.1439600457527055, 13.36643971169159 5.564963053524267 C13.617000881629597 6.985966061295829, 13.287976963441297 8.851953426736529, 12.566514828610833 10.101562500000002 C11.845052693780369 11.351171573263475, 10.393572191262075 12.569108327587587, 9.037666902708803 13.062617493105105 C7.681761614155532 13.556126658622622, 5.786988385844473 13.556126658622622, 4.431083097291201 13.062617493105105 C3.075177808737929 12.569108327587587, 1.6236973062196354 11.351171573263475, 0.9022351713891705 10.101562500000002 C0.1807730365587057 8.851953426736529, -0.14825088162959482 6.985966061295827, 0.10231028830841193 5.5649630535242665 C0.3528714582464187 4.1439600457527055, 1.3002580724019461 2.5030382956246777, 2.405602191017211 1.5755444533706333 C3.510946309632476 0.6480506111165889, 6.012912865169536 0.24014282556177222, 6.734375000000001 0 C7.455837134830466 -0.24014282556177222, 6.734375000000002 0.02244791666666668, 6.734375000000002 0.13468750000000007" stroke="#000000" stroke-width="1" fill="none"></path></g><g transform="translate(144.71199068663918 316.8815104166665) rotate(0 10.873046875 10.873046875)"><path d="M10.873046875000002 0 C13.086249148417135 -0.1388206189727653, 16.077463208896756 1.0463160533892246, 17.86210668579095 2.5438097366340813 C19.64675016268514 4.041303419878938, 21.176361903115485 6.6906686701581535, 21.580907736365162 8.98496209946914 C21.98545356961484 11.279255528780126, 21.4542249870875 14.292002530928727, 20.28938168528901 16.3095703125 C19.124538383490517 18.327138094071273, 16.781037235718088 20.29356904283065, 14.591847925574218 21.090368788896782 C12.402658615430347 21.887168534962914, 9.343435134569656 21.887168534962917, 7.154245824425787 21.090368788896786 C4.965056514281916 20.293569042830654, 2.6215553665094866 18.327138094071273, 1.4567120647109952 16.3095703125 C0.2918687629125041 14.292002530928725, -0.23935981961483693 11.279255528780125, 0.1651860136348393 8.984962099469138 C0.5697318468845156 6.690668670158152, 2.099343587314859 4.04130341987894, 3.8839870642090526 2.543809736634083 C5.668630541103246 1.0463160533892266, 9.708203573201509 0.3877247998556805, 10.873046875 0 C12.037890176798491 -0.3877247998556805, 10.873046875000002 0.03624348958333368, 10.873046875000002 0.21746093750000028 M10.873046875000002 0 C13.086249148417135 -0.1388206189727653, 16.077463208896756 1.0463160533892246, 17.86210668579095 2.5438097366340813 C19.64675016268514 4.041303419878938, 21.176361903115485 6.6906686701581535, 21.580907736365162 8.98496209946914 C21.98545356961484 11.279255528780126, 21.4542249870875 14.292002530928727, 20.28938168528901 16.3095703125 C19.124538383490517 18.327138094071273, 16.781037235718088 20.29356904283065, 14.591847925574218 21.090368788896782 C12.402658615430347 21.887168534962914, 9.343435134569656 21.887168534962917, 7.154245824425787 21.090368788896786 C4.965056514281916 20.293569042830654, 2.6215553665094866 18.327138094071273, 1.4567120647109952 16.3095703125 C0.2918687629125041 14.292002530928725, -0.23935981961483693 11.279255528780125, 0.1651860136348393 8.984962099469138 C0.5697318468845156 6.690668670158152, 2.099343587314859 4.04130341987894, 3.8839870642090526 2.543809736634083 C5.668630541103246 1.0463160533892266, 9.708203573201509 0.3877247998556805, 10.873046875 0 C12.037890176798491 -0.3877247998556805, 10.873046875000002 0.03624348958333368, 10.873046875000002 0.21746093750000028" stroke="#000000" stroke-width="1" fill="none"></path></g><g transform="translate(39.130657278386934 81.21969572698549) rotate(335.8190563518331 176.8958618445422 64.46652845062118)"><path d="M176.89586184454242 0 C195.64899881846728 -1.0124445224280585, 217.51519891328627 1.3115002822131046, 236.1162943937788 3.719857104937688 C254.7173898742713 6.128213927662271, 273.18703424327947 9.911362010001419, 288.5024347274976 14.450140936347502 C303.8178352117157 18.988919862693585, 317.7464547931103 24.807124211184682, 328.0086972990874 30.95253066301418 C338.2709398050645 37.09793711484368, 346.05111208806113 44.27975196363348, 350.07588976336 51.322579647324496 C354.1006674386589 58.36540733101551, 354.8345271328469 66.08202040701626, 352.1573633508808 73.20949676516028 C349.4801995689147 80.3369731233043, 343.08305611430694 87.69785414152312, 334.0129070715633 94.08743779618865 C324.94275802881964 100.47702145085418, 312.15286925014624 106.63269313332053, 297.7364690944189 111.54699869315344 C283.3200689386916 116.46130425298635, 265.6134429222621 120.70137565438276, 247.5145061371992 123.5732711551861 C229.4155693521363 126.44516665598945, 208.83562677453145 128.28031532924143, 189.1428483840415 128.77837169797357 C169.45006999355158 129.2764280667057, 148.3718246008629 128.4948699745809, 129.35783579425953 126.5616093675789 C110.34384698765615 124.6283487605769, 91.19981881060532 121.32027906300668, 75.05891554442121 117.17880805596155 C58.9180122782371 113.03733704891643, 43.91750437511052 107.58452119423144, 32.51241619715486 101.71278332530812 C21.10732801919921 95.8410454563848, 11.981463415920516 88.87276180923294, 6.628386476687297 81.94838084242166 C1.2753095374540777 75.02399987561037, -0.9227478032480765 67.34441829148287, 0.39395456175554955 60.16649752444039 C1.7106569267591756 52.988576757397915, 6.694072104461114 45.483953928108, 14.528600666709053 38.880856240166814 C22.363129228956993 32.27775855222563, 33.952909414199354 25.814160177985286, 47.401125935243186 20.547911396793282 C60.84934245628702 15.281662615601277, 77.70797724784633 10.60501570423124, 95.21789979297203 7.283363553014794 C112.72782233809774 3.961711401798348, 138.84766753073572 1.8318924149970688, 152.46066120599744 0.6179984894946031 C166.07365488125916 -0.5958954360078625, 172.8233284047849 -0.11188867991963747, 176.8958618445424 0 C180.9683952842999 0.11188867991963747, 176.89586184454242 0.21488842816874154, 176.89586184454242 1.289330569012428 M176.89586184454242 0 C195.64899881846728 -1.0124445224280585, 217.51519891328627 1.3115002822131046, 236.1162943937788 3.719857104937688 C254.7173898742713 6.128213927662271, 273.18703424327947 9.911362010001419, 288.5024347274976 14.450140936347502 C303.8178352117157 18.988919862693585, 317.7464547931103 24.807124211184682, 328.0086972990874 30.95253066301418 C338.2709398050645 37.09793711484368, 346.05111208806113 44.27975196363348, 350.07588976336 51.322579647324496 C354.1006674386589 58.36540733101551, 354.8345271328469 66.08202040701626, 352.1573633508808 73.20949676516028 C349.4801995689147 80.3369731233043, 343.08305611430694 87.69785414152312, 334.0129070715633 94.08743779618865 C324.94275802881964 100.47702145085418, 312.15286925014624 106.63269313332053, 297.7364690944189 111.54699869315344 C283.3200689386916 116.46130425298635, 265.6134429222621 120.70137565438276, 247.5145061371992 123.5732711551861 C229.4155693521363 126.44516665598945, 208.83562677453145 128.28031532924143, 189.1428483840415 128.77837169797357 C169.45006999355158 129.2764280667057, 148.3718246008629 128.4948699745809, 129.35783579425953 126.5616093675789 C110.34384698765615 124.6283487605769, 91.19981881060532 121.32027906300668, 75.05891554442121 117.17880805596155 C58.9180122782371 113.03733704891643, 43.91750437511052 107.58452119423144, 32.51241619715486 101.71278332530812 C21.10732801919921 95.8410454563848, 11.981463415920516 88.87276180923294, 6.628386476687297 81.94838084242166 C1.2753095374540777 75.02399987561037, -0.9227478032480765 67.34441829148287, 0.39395456175554955 60.16649752444039 C1.7106569267591756 52.988576757397915, 6.694072104461114 45.483953928108, 14.528600666709053 38.880856240166814 C22.363129228956993 32.27775855222563, 33.952909414199354 25.814160177985286, 47.401125935243186 20.547911396793282 C60.84934245628702 15.281662615601277, 77.70797724784633 10.60501570423124, 95.21789979297203 7.283363553014794 C112.72782233809774 3.961711401798348, 138.84766753073572 1.8318924149970688, 152.46066120599744 0.6179984894946031 C166.07365488125916 -0.5958954360078625, 172.8233284047849 -0.11188867991963747, 176.8958618445424 0 C180.9683952842999 0.11188867991963747, 176.89586184454242 0.21488842816874154, 176.89586184454242 1.289330569012428" stroke="#000000" stroke-width="1" fill="none"></path></g><g transform="translate(14.958937472405523 76.02962469582008) rotate(335.8190563518331 201.85267738139282 69.1084579414692)"><path d="M201.8526773813927 0 C222.00086668173998 -1.0930909520902101, 245.3510879443722 1.2341986113617502, 265.4785383298578 3.5230008160565376 C285.60598871534347 5.811803020751325, 305.62320765705203 9.388565263854542, 322.61737969430646 13.732813228168723 C339.6115517315609 18.077061192482905, 355.315329675285 23.6317157470106, 367.44357055338423 29.588488601941627 C379.57181143148347 35.54526145687265, 389.3610586073494 42.51147959515775, 395.38682496290187 49.473450357754885 C401.41259131845436 56.43542112035202, 404.2892381177216 64.10295715273402, 403.5981686866993 71.3603131775244 C402.907099255677 78.61766920231479, 398.57785512250905 86.20477407798711, 391.240408376768 93.01758650649721 C383.902961631027 99.83039893500731, 372.8092177082266 106.56352401854423, 359.573488212253 112.23718774858497 C346.3377587162794 117.91085147862572, 329.61058549962434 123.10351624736815, 311.82603140092624 127.05956888674169 C294.04147730222815 131.0156215261152, 273.38630554934025 134.1384041766341, 252.86616362006447 135.97350358482618 C232.3460216907887 137.80860299301824, 209.86876402390698 138.5431180149477, 188.70517982527156 138.0701653358941 C167.54159562663614 137.5972126568405, 145.53393672407327 135.86857205242333, 125.88465842825191 133.13578751050449 C106.23538013243054 130.40300296858564, 86.94112639886387 126.38745151136861, 70.8095100503433 121.67345808438097 C54.67789370182274 116.95946465739333, 40.06420440178476 111.06641073188052, 29.094960337128498 104.85182694857866 C18.12571627247224 98.6372431652768, 9.682540418375723 91.46751724597338, 4.994045662405739 84.38595538456983 C0.3055509064357551 77.30439352316627, -1.1062815451521195 69.58899007925864, 0.9639918013085946 62.36245578015732 C3.034265147769309 55.135921481056, 8.79772047329305 47.661469919095616, 17.415685741170023 41.02674958996191 C26.033651009047 34.3920292608282, 38.38477695395838 27.9205925680883, 52.671783408570434 22.554133805355093 C66.95878986318249 17.187675042621887, 84.6383186597072 12.379053117079936, 103.13772446884234 8.82799701356268 C121.63713027797748 5.276940910045424, 147.2157261112895 2.719130019845333, 163.66821826338125 1.247797184251553 C180.12071041547298 -0.22353565134222708, 195.4886008617241 -0.02239532909630526, 201.85267738139268 0 C208.21675390106125 0.02239532909630526, 201.8526773813927 0.23036152647156527, 201.8526773813927 1.3821691588293845 M201.8526773813927 0 C222.00086668173998 -1.0930909520902101, 245.3510879443722 1.2341986113617502, 265.4785383298578 3.5230008160565376 C285.60598871534347 5.811803020751325, 305.62320765705203 9.388565263854542, 322.61737969430646 13.732813228168723 C339.6115517315609 18.077061192482905, 355.315329675285 23.6317157470106, 367.44357055338423 29.588488601941627 C379.57181143148347 35.54526145687265, 389.3610586073494 42.51147959515775, 395.38682496290187 49.473450357754885 C401.41259131845436 56.43542112035202, 404.2892381177216 64.10295715273402, 403.5981686866993 71.3603131775244 C402.907099255677 78.61766920231479, 398.57785512250905 86.20477407798711, 391.240408376768 93.01758650649721 C383.902961631027 99.83039893500731, 372.8092177082266 106.56352401854423, 359.573488212253 112.23718774858497 C346.3377587162794 117.91085147862572, 329.61058549962434 123.10351624736815, 311.82603140092624 127.05956888674169 C294.04147730222815 131.0156215261152, 273.38630554934025 134.1384041766341, 252.86616362006447 135.97350358482618 C232.3460216907887 137.80860299301824, 209.86876402390698 138.5431180149477, 188.70517982527156 138.0701653358941 C167.54159562663614 137.5972126568405, 145.53393672407327 135.86857205242333, 125.88465842825191 133.13578751050449 C106.23538013243054 130.40300296858564, 86.94112639886387 126.38745151136861, 70.8095100503433 121.67345808438097 C54.67789370182274 116.95946465739333, 40.06420440178476 111.06641073188052, 29.094960337128498 104.85182694857866 C18.12571627247224 98.6372431652768, 9.682540418375723 91.46751724597338, 4.994045662405739 84.38595538456983 C0.3055509064357551 77.30439352316627, -1.1062815451521195 69.58899007925864, 0.9639918013085946 62.36245578015732 C3.034265147769309 55.135921481056, 8.79772047329305 47.661469919095616, 17.415685741170023 41.02674958996191 C26.033651009047 34.3920292608282, 38.38477695395838 27.9205925680883, 52.671783408570434 22.554133805355093 C66.95878986318249 17.187675042621887, 84.6383186597072 12.379053117079936, 103.13772446884234 8.82799701356268 C121.63713027797748 5.276940910045424, 147.2157261112895 2.719130019845333, 163.66821826338125 1.247797184251553 C180.12071041547298 -0.22353565134222708, 195.4886008617241 -0.02239532909630526, 201.85267738139268 0 C208.21675390106125 0.02239532909630526, 201.8526773813927 0.23036152647156527, 201.8526773813927 1.3821691588293845" stroke="#000000" stroke-width="1" fill="none"></path></g><g transform="translate(-7.782932078702288 76.59028248425) rotate(335.8190563518331 224.82860591707686 69.10845794146914)"><path d="M224.82860591707694 0 C246.2364438355051 -1.098504224561965, 270.9405940930295 1.1154037081887025, 292.4323046068501 3.198204467751296 C313.9240151206707 5.281005227313889, 335.3192029827114 8.523978941318868, 353.7788690000003 12.496804557375562 C372.2385350172893 16.469630173432254, 389.47123377455443 21.540016913055357, 403.1903007105837 27.035158164091456 C416.90936764661296 32.53029941512755, 428.38458601153616 38.958803988234024, 436.093270616176 45.46765206359215 C443.8019552208159 51.97650013895027, 448.45759180273365 59.16812527142696, 449.44240833842287 66.0882466162402 C450.4272248741121 73.00836796105344, 447.8323721355093 80.29748492049366, 442.0021698303112 86.98838013247156 C436.1719675251131 93.67927534444947, 426.5667949002081 100.39123193573737, 414.4611945072343 106.2336178881076 C402.35559411426055 112.07600384047784, 386.629118864255 117.589567577836, 369.36856747246856 122.04269584669296 C352.1080160806821 126.49582411554994, 331.715819328487 130.30068107494367, 310.89788615651565 132.9523875012494 C290.0799529845443 135.60409392755514, 266.9094568114155 137.34808141025965, 244.4609684406406 137.95293440452744 C222.0124800698657 138.55778739879523, 198.20825509966735 138.07948873527312, 176.20695593186616 136.58150546685613 C154.20565676406497 135.08352219843914, 131.9709290828291 132.42720684479352, 112.4531734338334 128.9650347940255 C92.93541778483771 125.50286274325751, 74.32814693984845 120.9143888732876, 59.100422037892 115.80847316224806 C43.87269713593555 110.70255745120852, 30.615099438241266 104.60661628414333, 21.086824022094703 98.3295405277883 C11.558548605948141 92.05246477143326, 4.877695515436708 85.01327281148615, 1.930769541012637 78.1460186241179 C-1.016156433411434 71.27876443674965, -0.5019112495071076 63.947841797268495, 3.405268175550276 57.126015403578855 C7.31244760060766 50.304189009889214, 14.974194533302144 43.360057256445195, 25.37384609135694 37.215060261980035 C35.77349764941173 31.070063267514875, 49.87360496091587 25.155444112038783, 65.80317752387904 20.256033436787888 C81.73275008684222 15.356622761536993, 100.96616691818262 11.018950251077348, 120.95128146913599 7.8185962104746665 C140.93639602008938 4.618242169871985, 168.4009774216091 2.357008561584249, 185.71386482959926 1.0539091931718048 C203.02675223758942 -0.24919017524063958, 218.3094824024973 -0.054709994276263295, 224.8286059170769 0 C231.34772943165652 0.054709994276263295, 224.82860591707694 0.23036152647156527, 224.82860591707694 1.3821691588293845 M224.82860591707694 0 C246.2364438355051 -1.098504224561965, 270.9405940930295 1.1154037081887025, 292.4323046068501 3.198204467751296 C313.9240151206707 5.281005227313889, 335.3192029827114 8.523978941318868, 353.7788690000003 12.496804557375562 C372.2385350172893 16.469630173432254, 389.47123377455443 21.540016913055357, 403.1903007105837 27.035158164091456 C416.90936764661296 32.53029941512755, 428.38458601153616 38.958803988234024, 436.093270616176 45.46765206359215 C443.8019552208159 51.97650013895027, 448.45759180273365 59.16812527142696, 449.44240833842287 66.0882466162402 C450.4272248741121 73.00836796105344, 447.8323721355093 80.29748492049366, 442.0021698303112 86.98838013247156 C436.1719675251131 93.67927534444947, 426.5667949002081 100.39123193573737, 414.4611945072343 106.2336178881076 C402.35559411426055 112.07600384047784, 386.629118864255 117.589567577836, 369.36856747246856 122.04269584669296 C352.1080160806821 126.49582411554994, 331.715819328487 130.30068107494367, 310.89788615651565 132.9523875012494 C290.0799529845443 135.60409392755514, 266.9094568114155 137.34808141025965, 244.4609684406406 137.95293440452744 C222.0124800698657 138.55778739879523, 198.20825509966735 138.07948873527312, 176.20695593186616 136.58150546685613 C154.20565676406497 135.08352219843914, 131.9709290828291 132.42720684479352, 112.4531734338334 128.9650347940255 C92.93541778483771 125.50286274325751, 74.32814693984845 120.9143888732876, 59.100422037892 115.80847316224806 C43.87269713593555 110.70255745120852, 30.615099438241266 104.60661628414333, 21.086824022094703 98.3295405277883 C11.558548605948141 92.05246477143326, 4.877695515436708 85.01327281148615, 1.930769541012637 78.1460186241179 C-1.016156433411434 71.27876443674965, -0.5019112495071076 63.947841797268495, 3.405268175550276 57.126015403578855 C7.31244760060766 50.304189009889214, 14.974194533302144 43.360057256445195, 25.37384609135694 37.215060261980035 C35.77349764941173 31.070063267514875, 49.87360496091587 25.155444112038783, 65.80317752387904 20.256033436787888 C81.73275008684222 15.356622761536993, 100.96616691818262 11.018950251077348, 120.95128146913599 7.8185962104746665 C140.93639602008938 4.618242169871985, 168.4009774216091 2.357008561584249, 185.71386482959926 1.0539091931718048 C203.02675223758942 -0.24919017524063958, 218.3094824024973 -0.054709994276263295, 224.8286059170769 0 C231.34772943165652 0.054709994276263295, 224.82860591707694 0.23036152647156527, 224.82860591707694 1.3821691588293845" stroke="#000000" stroke-width="1" fill="none"></path></g><g transform="translate(64.31240470647845 81.2500517821718) rotate(335.8190563518331 152 64.46652845062118)"><path d="M152 0 C169.16023077849218 -1.0038403260593352, 189.3137514341334 1.5048214920481784, 206.1902024583963 4.236108887061079 C223.0666534826592 6.967396282073979, 239.787115074986 11.284096496698254, 253.25870614557735 16.3877243700774 C266.7302972161687 21.491352243456546, 278.7234598232067 28.052628656961854, 287.0197488819445 34.857876127335956 C295.3160379406823 41.66312359771006, 301.00575518307267 49.60669055601459, 303.03644049800414 57.21920919232202 C305.0671258129356 64.83172782862944, 303.70565270255423 73.11363848378673, 299.2038607715334 80.53298794518051 C294.7020688405126 87.95233740657429, 286.4683307354016 95.48417964236405, 276.0256889118791 101.73530596068473 C265.58304708835664 107.9864322790054, 251.55912524832863 113.77836828043161, 236.5480098303986 118.03974585510451 C221.53689441246857 122.30112342977742, 203.56581843337017 125.59197457721818, 185.95899640429892 127.30357140872215 C168.35217437522766 129.01516824022613, 148.79571047884073 129.3724495177604, 130.90707765597105 128.30932684412835 C113.01844483310137 127.2462041704963, 94.44671157558268 124.6229615251817, 78.62719946708083 120.92483536692987 C62.807687358578974 117.22670920867805, 47.66138958912979 111.96769027156606, 35.99000500495991 106.1205698946174 C24.318620420790033 100.27344951766875, 14.588290843102705 93.0697967278559, 8.598891962061572 85.84211310523791 C2.609493081020439 78.61442948261993, -0.4261043761277392 70.41284986266916, 0.05361171871311399 62.754468158909496 C0.5333278135539672 55.09608645514983, 4.591401947545218 46.97443498348218, 11.477188531106691 39.891822882679925 C18.362975114668163 32.80921078187767, 28.981407062354826 25.83483824668074, 41.368331220081956 20.258795554095933 C53.755255377809085 14.682752861511126, 69.53856643043137 9.772234179662968, 85.79873347746948 6.435566727171079 C102.05890052450759 3.0988992746791895, 127.89578908188886 1.311385293673112, 138.9293335023106 0.23879083914459898 C149.96287792273236 -0.8338036153839141, 149.8215555837184 -0.1750899549779715, 151.99999999999997 0 C154.17844441628154 0.1750899549779715, 152 0.21488842816874154, 152 1.289330569012428 M152 0 C169.16023077849218 -1.0038403260593352, 189.3137514341334 1.5048214920481784, 206.1902024583963 4.236108887061079 C223.0666534826592 6.967396282073979, 239.787115074986 11.284096496698254, 253.25870614557735 16.3877243700774 C266.7302972161687 21.491352243456546, 278.7234598232067 28.052628656961854, 287.0197488819445 34.857876127335956 C295.3160379406823 41.66312359771006, 301.00575518307267 49.60669055601459, 303.03644049800414 57.21920919232202 C305.0671258129356 64.83172782862944, 303.70565270255423 73.11363848378673, 299.2038607715334 80.53298794518051 C294.7020688405126 87.95233740657429, 286.4683307354016 95.48417964236405, 276.0256889118791 101.73530596068473 C265.58304708835664 107.9864322790054, 251.55912524832863 113.77836828043161, 236.5480098303986 118.03974585510451 C221.53689441246857 122.30112342977742, 203.56581843337017 125.59197457721818, 185.95899640429892 127.30357140872215 C168.35217437522766 129.01516824022613, 148.79571047884073 129.3724495177604, 130.90707765597105 128.30932684412835 C113.01844483310137 127.2462041704963, 94.44671157558268 124.6229615251817, 78.62719946708083 120.92483536692987 C62.807687358578974 117.22670920867805, 47.66138958912979 111.96769027156606, 35.99000500495991 106.1205698946174 C24.318620420790033 100.27344951766875, 14.588290843102705 93.0697967278559, 8.598891962061572 85.84211310523791 C2.609493081020439 78.61442948261993, -0.4261043761277392 70.41284986266916, 0.05361171871311399 62.754468158909496 C0.5333278135539672 55.09608645514983, 4.591401947545218 46.97443498348218, 11.477188531106691 39.891822882679925 C18.362975114668163 32.80921078187767, 28.981407062354826 25.83483824668074, 41.368331220081956 20.258795554095933 C53.755255377809085 14.682752861511126, 69.53856643043137 9.772234179662968, 85.79873347746948 6.435566727171079 C102.05890052450759 3.0988992746791895, 127.89578908188886 1.311385293673112, 138.9293335023106 0.23879083914459898 C149.96287792273236 -0.8338036153839141, 149.8215555837184 -0.1750899549779715, 151.99999999999997 0 C154.17844441628154 0.1750899549779715, 152 0.21488842816874154, 152 1.289330569012428" stroke="#000000" stroke-width="1" fill="none"></path></g><g transform="translate(77.54011568663918 10.000000000000057) rotate(0 141.08203125 141.08203124999997)"><path d="M141.08203125 0 C155.62696463636019 -2.223263924529578, 172.53706236557252 2.7016474231037177, 187.01339983850582 7.686195778225255 C201.48973731143911 12.67074413334679, 215.8751886558943 20.481313110272936, 227.94005608759977 29.907290130729223 C240.00492351930524 39.33326715118551, 251.06380298356746 51.40171291366582, 259.4026044287387 64.24205790096299 C267.7414058739099 77.08240288826016, 274.26873062782 92.09373959369722, 277.9728647586272 106.94936005451225 C281.67699888943446 121.80498051532729, 282.9615473050913 138.1235629750522, 281.62740921358227 153.3757806658532 C280.29327112207324 168.6279983566542, 276.1950779534157 184.47574301888855, 269.968036209573 198.4626661993181 C263.74099446573024 212.44958937974766, 254.70660155444023 226.09971549093953, 244.26515875052579 237.29731974843054 C233.82371594661134 248.49492400592155, 220.83751672732166 258.46010478521146, 207.3193793860863 265.64829174426416 C193.80124204485094 272.83647870331686, 178.27822138459436 278.0309014535613, 163.1563347031136 280.4264415027469 C148.03444802163284 282.82198155193254, 131.66600453165765 282.6796585302629, 116.58805929720171 280.0215320393778 C101.51011406274577 277.3634055484927, 86.07976418570686 271.8998443656035, 72.68866329637797 264.4776825574365 C59.29756240704908 257.0555207492695, 46.4866072842842 246.86603464988679, 36.24145396122836 235.48856119037583 C25.99630063817252 224.11108773086488, 17.200630423901828 210.30592986835566, 11.217743358042952 196.21284180037082 C5.234856292184077 182.119753732386, 1.412853037879368 166.2031432499028, 0.34413156607510587 150.93003278246684 C-0.7245899057291563 135.65692231503087, 0.8435218056393858 119.36314363150635, 4.80541452721738 104.57417899575496 C8.767307248795374 89.78521436000358, 15.554671435285906 74.88964839133507, 24.11548789554307 62.196244967958506 C32.676304355800234 49.50284154458194, 43.9433653207268 37.628519023290984, 56.170313288760354 28.413758455495554 C68.39726125679391 19.198997887700123, 83.32522271020449 11.643307970435199, 97.47717570374442 6.907681561185939 C111.62912869728436 2.1720551519366795, 133.81455532562404 0.681006822697654, 141.08203124999997 0 C148.3495071743759 -0.681006822697654, 141.08203125 0.47027343750001416, 141.08203125 2.821640625000015 M141.08203125 0 C155.62696463636019 -2.223263924529578, 172.53706236557252 2.7016474231037177, 187.01339983850582 7.686195778225255 C201.48973731143911 12.67074413334679, 215.8751886558943 20.481313110272936, 227.94005608759977 29.907290130729223 C240.00492351930524 39.33326715118551, 251.06380298356746 51.40171291366582, 259.4026044287387 64.24205790096299 C267.7414058739099 77.08240288826016, 274.26873062782 92.09373959369722, 277.9728647586272 106.94936005451225 C281.67699888943446 121.80498051532729, 282.9615473050913 138.1235629750522, 281.62740921358227 153.3757806658532 C280.29327112207324 168.6279983566542, 276.1950779534157 184.47574301888855, 269.968036209573 198.4626661993181 C263.74099446573024 212.44958937974766, 254.70660155444023 226.09971549093953, 244.26515875052579 237.29731974843054 C233.82371594661134 248.49492400592155, 220.83751672732166 258.46010478521146, 207.3193793860863 265.64829174426416 C193.80124204485094 272.83647870331686, 178.27822138459436 278.0309014535613, 163.1563347031136 280.4264415027469 C148.03444802163284 282.82198155193254, 131.66600453165765 282.6796585302629, 116.58805929720171 280.0215320393778 C101.51011406274577 277.3634055484927, 86.07976418570686 271.8998443656035, 72.68866329637797 264.4776825574365 C59.29756240704908 257.0555207492695, 46.4866072842842 246.86603464988679, 36.24145396122836 235.48856119037583 C25.99630063817252 224.11108773086488, 17.200630423901828 210.30592986835566, 11.217743358042952 196.21284180037082 C5.234856292184077 182.119753732386, 1.412853037879368 166.2031432499028, 0.34413156607510587 150.93003278246684 C-0.7245899057291563 135.65692231503087, 0.8435218056393858 119.36314363150635, 4.80541452721738 104.57417899575496 C8.767307248795374 89.78521436000358, 15.554671435285906 74.88964839133507, 24.11548789554307 62.196244967958506 C32.676304355800234 49.50284154458194, 43.9433653207268 37.628519023290984, 56.170313288760354 28.413758455495554 C68.39726125679391 19.198997887700123, 83.32522271020449 11.643307970435199, 97.47717570374442 6.907681561185939 C111.62912869728436 2.1720551519366795, 133.81455532562404 0.681006822697654, 141.08203124999997 0 C148.3495071743759 -0.681006822697654, 141.08203125 0.47027343750001416, 141.08203125 2.821640625000015" stroke="none" stroke-width="0" fill="#ffffff"></path><path d="M141.08203125 0 C155.62696463636019 -2.223263924529578, 172.53706236557252 2.7016474231037177, 187.01339983850582 7.686195778225255 C201.48973731143911 12.67074413334679, 215.8751886558943 20.481313110272936, 227.94005608759977 29.907290130729223 C240.00492351930524 39.33326715118551, 251.06380298356746 51.40171291366582, 259.4026044287387 64.24205790096299 C267.7414058739099 77.08240288826016, 274.26873062782 92.09373959369722, 277.9728647586272 106.94936005451225 C281.67699888943446 121.80498051532729, 282.9615473050913 138.1235629750522, 281.62740921358227 153.3757806658532 C280.29327112207324 168.6279983566542, 276.1950779534157 184.47574301888855, 269.968036209573 198.4626661993181 C263.74099446573024 212.44958937974766, 254.70660155444023 226.09971549093953, 244.26515875052579 237.29731974843054 C233.82371594661134 248.49492400592155, 220.83751672732166 258.46010478521146, 207.3193793860863 265.64829174426416 C193.80124204485094 272.83647870331686, 178.27822138459436 278.0309014535613, 163.1563347031136 280.4264415027469 C148.03444802163284 282.82198155193254, 131.66600453165765 282.6796585302629, 116.58805929720171 280.0215320393778 C101.51011406274577 277.3634055484927, 86.07976418570686 271.8998443656035, 72.68866329637797 264.4776825574365 C59.29756240704908 257.0555207492695, 46.4866072842842 246.86603464988679, 36.24145396122836 235.48856119037583 C25.99630063817252 224.11108773086488, 17.200630423901828 210.30592986835566, 11.217743358042952 196.21284180037082 C5.234856292184077 182.119753732386, 1.412853037879368 166.2031432499028, 0.34413156607510587 150.93003278246684 C-0.7245899057291563 135.65692231503087, 0.8435218056393858 119.36314363150635, 4.80541452721738 104.57417899575496 C8.767307248795374 89.78521436000358, 15.554671435285906 74.88964839133507, 24.11548789554307 62.196244967958506 C32.676304355800234 49.50284154458194, 43.9433653207268 37.628519023290984, 56.170313288760354 28.413758455495554 C68.39726125679391 19.198997887700123, 83.32522271020449 11.643307970435199, 97.47717570374442 6.907681561185939 C111.62912869728436 2.1720551519366795, 133.81455532562404 0.681006822697654, 141.08203124999997 0 C148.3495071743759 -0.681006822697654, 141.08203125 0.47027343750001416, 141.08203125 2.821640625000015 M141.08203125 0 C155.62696463636019 -2.223263924529578, 172.53706236557252 2.7016474231037177, 187.01339983850582 7.686195778225255 C201.48973731143911 12.67074413334679, 215.8751886558943 20.481313110272936, 227.94005608759977 29.907290130729223 C240.00492351930524 39.33326715118551, 251.06380298356746 51.40171291366582, 259.4026044287387 64.24205790096299 C267.7414058739099 77.08240288826016, 274.26873062782 92.09373959369722, 277.9728647586272 106.94936005451225 C281.67699888943446 121.80498051532729, 282.9615473050913 138.1235629750522, 281.62740921358227 153.3757806658532 C280.29327112207324 168.6279983566542, 276.1950779534157 184.47574301888855, 269.968036209573 198.4626661993181 C263.74099446573024 212.44958937974766, 254.70660155444023 226.09971549093953, 244.26515875052579 237.29731974843054 C233.82371594661134 248.49492400592155, 220.83751672732166 258.46010478521146, 207.3193793860863 265.64829174426416 C193.80124204485094 272.83647870331686, 178.27822138459436 278.0309014535613, 163.1563347031136 280.4264415027469 C148.03444802163284 282.82198155193254, 131.66600453165765 282.6796585302629, 116.58805929720171 280.0215320393778 C101.51011406274577 277.3634055484927, 86.07976418570686 271.8998443656035, 72.68866329637797 264.4776825574365 C59.29756240704908 257.0555207492695, 46.4866072842842 246.86603464988679, 36.24145396122836 235.48856119037583 C25.99630063817252 224.11108773086488, 17.200630423901828 210.30592986835566, 11.217743358042952 196.21284180037082 C5.234856292184077 182.119753732386, 1.412853037879368 166.2031432499028, 0.34413156607510587 150.93003278246684 C-0.7245899057291563 135.65692231503087, 0.8435218056393858 119.36314363150635, 4.80541452721738 104.57417899575496 C8.767307248795374 89.78521436000358, 15.554671435285906 74.88964839133507, 24.11548789554307 62.196244967958506 C32.676304355800234 49.50284154458194, 43.9433653207268 37.628519023290984, 56.170313288760354 28.413758455495554 C68.39726125679391 19.198997887700123, 83.32522271020449 11.643307970435199, 97.47717570374442 6.907681561185939 C111.62912869728436 2.1720551519366795, 133.81455532562404 0.681006822697654, 141.08203124999997 0 C148.3495071743759 -0.681006822697654, 141.08203125 0.47027343750001416, 141.08203125 2.821640625000015" stroke="#000000" stroke-width="1" fill="none"></path></g></svg>